<svg width="140" height="42" viewBox="0 0 140 42" fill="none" xmlns="http://www.w3.org/2000/svg">
<g clip-path="url(#clip0_116_638)">
<path fill-rule="evenodd" clip-rule="evenodd" d="M86.8537 32.8451C78.7193 38.8192 66.9281 41.9996 56.7736 41.9996C43.2049 42.0694 30.099 37.093 20.0238 28.0452C19.262 27.3602 19.9452 26.4257 20.8594 26.9541C32.0562 33.3248 44.7321 36.6697 57.6288 36.6566C67.264 36.6086 76.7949 34.6665 85.6741 30.9418C87.0454 30.3742 88.1857 31.8567 86.8537 32.8451Z" fill="#FF9900"/>
<path fill-rule="evenodd" clip-rule="evenodd" d="M90.2402 28.9995C89.1982 27.6735 83.3591 28.3683 80.7394 28.6814C79.9432 28.7793 79.8203 28.0894 80.5379 27.5854C85.1924 24.3317 92.8255 25.2711 93.7102 26.3622C94.5949 27.4533 93.4743 35.0764 89.1146 38.7068C88.4413 39.2695 87.8023 38.971 88.1021 38.2175C89.0802 35.7907 91.2821 30.3254 90.2402 28.9995Z" fill="#FF9900"/>
<path fill-rule="evenodd" clip-rule="evenodd" d="M80.926 4.58954V1.42878C80.9233 1.32267 80.9423 1.21713 80.9819 1.11856C81.0214 1.01999 81.0807 0.930459 81.1561 0.855404C81.2315 0.78035 81.3214 0.721332 81.4204 0.681958C81.5195 0.642583 81.6255 0.623664 81.7321 0.626352H95.9857C96.0929 0.623075 96.1998 0.641287 96.2998 0.679897C96.3999 0.718507 96.4911 0.776732 96.5681 0.851119C96.6452 0.925505 96.7064 1.01454 96.7482 1.11293C96.79 1.21132 96.8115 1.31706 96.8114 1.42388V4.13941C96.8114 4.59444 96.4231 5.18646 95.7399 6.13078L88.3674 16.6161C91.105 16.5525 94.0049 16.9586 96.4919 18.3531C96.7142 18.4761 96.9007 18.6544 97.0333 18.8704C97.166 19.0865 97.2402 19.333 97.2488 19.586V22.9572C97.2527 23.0837 97.2247 23.2091 97.1674 23.3221C97.1101 23.4351 97.0253 23.532 96.9207 23.6039C96.8161 23.6759 96.6952 23.7207 96.5688 23.7342C96.4424 23.7478 96.3146 23.7296 96.197 23.6814C93.869 22.4905 91.2884 21.8717 88.671 21.8769C86.0536 21.882 83.4754 22.5108 81.1521 23.7107C80.6606 23.97 80.1347 23.4416 80.1347 22.9768V19.7671C80.0892 19.0064 80.2741 18.2496 80.6655 17.5947L89.2128 5.36262H81.7468C81.6415 5.36721 81.5364 5.35068 81.4376 5.31401C81.3388 5.27735 81.2485 5.2213 81.1719 5.14918C81.0953 5.07707 81.0341 4.99036 80.9919 4.89422C80.9496 4.79808 80.9272 4.69447 80.926 4.58954Z" fill="#3C404B"/>
<path fill-rule="evenodd" clip-rule="evenodd" d="M28.9693 24.3462H24.6391C24.4436 24.3369 24.2579 24.2582 24.1155 24.1246C23.9731 23.9909 23.8834 23.8109 23.8625 23.6172V1.47719C23.8677 1.26132 23.9585 1.05626 24.1151 0.906825C24.2716 0.757386 24.4812 0.675714 24.6981 0.679654H28.7333C28.9332 0.686149 29.1237 0.765484 29.2687 0.902585C29.4137 1.03969 29.503 1.225 29.5198 1.42336V4.31502H29.6033C30.6551 1.51632 32.6359 0.21483 35.3048 0.21483C37.9736 0.21483 39.7283 1.51632 40.9276 4.31502C41.3283 3.26104 42.0032 2.33197 42.8831 1.62289C43.763 0.913816 44.8164 0.450196 45.9354 0.279469C47.0544 0.108742 48.1989 0.237043 49.2517 0.651239C50.3046 1.06544 51.228 1.75066 51.9274 2.63678C53.3036 4.50095 53.0186 7.20179 53.0186 9.5797V23.5487C53.0134 23.7646 52.9226 23.9696 52.7661 24.1191C52.6095 24.2685 52.3999 24.3502 52.183 24.3462H47.8824C47.6754 24.3363 47.4799 24.2484 47.3357 24.1003C47.1915 23.9522 47.1093 23.755 47.1058 23.5487V11.8059C47.1058 10.8714 47.1844 8.54243 46.9829 7.65683C46.6585 6.18898 45.6902 5.74861 44.4369 5.74861C43.874 5.76544 43.3285 5.94643 42.868 6.26913C42.4076 6.59183 42.0524 7.04203 41.8467 7.56386C41.3994 8.68432 41.4436 10.5485 41.4436 11.8059V23.5487C41.4385 23.7646 41.3477 23.9696 41.1911 24.1191C41.0346 24.2685 40.825 24.3502 40.6081 24.3462H36.2779C36.0706 24.3375 35.8745 24.2499 35.73 24.1016C35.5855 23.9532 35.5037 23.7553 35.5014 23.5487V11.8059C35.5014 9.33506 35.9044 5.6997 32.8325 5.6997C29.7606 5.6997 29.8392 9.24209 29.8392 11.8059V23.5487C29.8368 23.6586 29.8121 23.7669 29.7666 23.867C29.7212 23.9672 29.6559 24.0572 29.5747 24.1317C29.4934 24.2061 29.398 24.2635 29.2939 24.3004C29.1899 24.3373 29.0795 24.3529 28.9693 24.3462Z" fill="#3C404B"/>
<path fill-rule="evenodd" clip-rule="evenodd" d="M109.055 0.214844C115.489 0.214844 118.964 5.70949 118.964 12.7013C118.964 19.4534 115.125 24.8111 109.055 24.8111C102.744 24.8111 99.3083 19.3164 99.3083 12.4665C99.3083 5.61653 102.783 0.214844 109.055 0.214844ZM109.094 4.73093C105.899 4.73093 105.698 9.06597 105.698 11.7668C105.698 14.4676 105.659 20.2461 109.055 20.2461C112.451 20.2461 112.574 15.5881 112.574 12.7454C112.574 10.8812 112.495 8.64519 111.925 6.87398C111.439 5.34253 110.47 4.73093 109.094 4.73093Z" fill="#3C404B"/>
<path fill-rule="evenodd" clip-rule="evenodd" d="M127.304 24.3465H122.989C122.782 24.3378 122.585 24.2502 122.441 24.1019C122.297 23.9535 122.215 23.7556 122.212 23.549V1.4041C122.237 1.20262 122.335 1.01718 122.488 0.883488C122.642 0.749799 122.839 0.677305 123.043 0.679954H127.064C127.242 0.686262 127.414 0.750268 127.554 0.862344C127.693 0.974421 127.792 1.12849 127.835 1.30134V4.68718H127.914C129.128 1.65852 130.828 0.215129 133.812 0.215129C134.811 0.168762 135.804 0.385444 136.692 0.843307C137.58 1.30117 138.331 1.98403 138.869 2.82301C140 4.59422 140 7.57394 140 9.717V23.6469C139.971 23.8443 139.871 24.0245 139.718 24.1534C139.565 24.2823 139.37 24.351 139.169 24.3465H134.824C134.634 24.3371 134.453 24.2622 134.312 24.1345C134.172 24.0069 134.08 23.8345 134.053 23.6469V11.6301C134.053 9.18369 134.338 5.66574 131.345 5.66574C130.8 5.68929 130.273 5.86896 129.829 6.18317C129.384 6.49738 129.04 6.93275 128.838 7.43694C128.303 8.76763 128.068 10.1991 128.15 11.6301V23.549C128.141 23.7653 128.048 23.9696 127.89 24.1186C127.732 24.2675 127.522 24.3493 127.304 24.3465Z" fill="#3C404B"/>
<path fill-rule="evenodd" clip-rule="evenodd" d="M69.5723 13.7733C69.5723 15.4564 69.6116 16.8558 68.7613 18.3481C68.4824 18.9119 68.0566 19.3909 67.5284 19.7351C67.0002 20.0794 66.3889 20.2762 65.7582 20.3052C64.097 20.3052 63.1238 19.0429 63.1238 17.1787C63.1238 13.5042 66.4365 12.8339 69.5723 12.8339V13.7733ZM73.9369 24.2929C73.7969 24.4111 73.6239 24.4838 73.4411 24.5013C73.2584 24.5188 73.0746 24.4802 72.9145 24.3907C71.9192 23.591 71.0782 22.6178 70.4324 21.5186C68.0536 23.9308 66.3677 24.65 63.286 24.65C59.639 24.65 56.803 22.4091 56.803 17.9273C56.7535 16.4222 57.1702 14.9384 57.9967 13.6771C58.8232 12.4158 60.0195 11.4382 61.4232 10.8768C63.7726 9.85415 67.0558 9.66334 69.5723 9.38445V8.82666C69.5723 7.79916 69.6509 6.58575 69.0415 5.69525C68.7575 5.32746 68.3884 5.03349 67.9656 4.8384C67.5428 4.6433 67.0789 4.55285 66.6134 4.57479C64.9571 4.57479 63.4875 5.42126 63.1287 7.168C63.1061 7.36323 63.0207 7.54594 62.8851 7.68882C62.7496 7.83169 62.5712 7.92705 62.3767 7.96063L58.1743 7.5056C58.071 7.49227 57.9715 7.45783 57.8821 7.40444C57.7928 7.35106 57.7154 7.27989 57.655 7.19537C57.5945 7.11085 57.5523 7.01481 57.5309 6.91328C57.5094 6.81175 57.5093 6.7069 57.5305 6.60531C58.5135 1.53145 63.0943 0 67.218 0C69.3266 0 72.0839 0.562682 73.7452 2.14796C75.8537 4.10509 75.6522 6.72275 75.6522 9.57038V16.2931C75.6522 18.3138 76.4927 19.1994 77.284 20.2905C77.4359 20.4427 77.5211 20.6485 77.5211 20.863C77.5211 21.0775 77.4359 21.2833 77.284 21.4355C76.3944 22.1743 74.8265 23.5345 73.9565 24.3027L73.9369 24.2929Z" fill="#3C404B"/>
<path fill-rule="evenodd" clip-rule="evenodd" d="M12.7696 13.7733C12.7696 15.4564 12.8089 16.8558 11.9586 18.3481C11.6809 18.9118 11.2561 19.3909 10.7286 19.7352C10.2012 20.0795 9.59048 20.2764 8.96041 20.3052C7.29421 20.3052 6.32103 19.0429 6.32103 17.1787C6.32103 13.5042 9.63377 12.8339 12.7696 12.8339V13.7733ZM17.139 24.2929C16.9979 24.4109 16.8242 24.4834 16.6407 24.5009C16.4573 24.5184 16.2728 24.48 16.1118 24.3907C15.1165 23.5909 14.2755 22.6178 13.6297 21.5186C11.2508 23.9308 9.56496 24.65 6.48323 24.65C2.83627 24.65 0.000295098 22.4091 0.000295098 17.9273C-0.0492529 16.4222 0.367494 14.9384 1.19399 13.6771C2.02049 12.4158 3.21673 11.4381 4.62043 10.8767C6.96982 9.85415 10.2531 9.66334 12.7696 9.38445V8.82666C12.7696 7.79916 12.8482 6.58575 12.2437 5.69525C11.9559 5.32419 11.5819 5.02832 11.1538 4.83313C10.7257 4.63794 10.2563 4.54928 9.78614 4.57479C8.13469 4.57479 6.66508 5.42126 6.30137 7.168C6.2788 7.36323 6.19335 7.54594 6.0578 7.68882C5.92225 7.83169 5.74388 7.92705 5.54937 7.96063L1.35193 7.5056C1.24814 7.49288 1.14812 7.45889 1.05819 7.40577C0.968252 7.35265 0.890343 7.28155 0.829385 7.19696C0.768428 7.11238 0.72574 7.01614 0.704012 6.91431C0.682284 6.81248 0.681987 6.70726 0.703142 6.60531C1.68615 1.53145 6.26697 0 10.3907 0C12.4992 0 15.2566 0.562682 16.9179 2.14796C19.0264 4.10509 18.8249 6.72275 18.8249 9.57038V16.2931C18.8249 18.3138 19.6654 19.1994 20.4616 20.2905C20.6123 20.4433 20.6967 20.6489 20.6967 20.863C20.6967 21.0771 20.6123 21.2827 20.4616 21.4355C19.5769 22.1743 18.0041 23.5345 17.139 24.3027V24.2929Z" fill="#3C404B"/>
</g>
<defs>
<clipPath id="clip0_116_638">
<rect width="140" height="42" fill="white"/>
</clipPath>
</defs>
</svg>
