<svg width="32" height="32" viewBox="0 0 32 32" fill="none" xmlns="http://www.w3.org/2000/svg">
<path d="M27 5.15039C27.4907 5.15039 27.9617 5.34446 28.3086 5.69141C28.6555 6.03835 28.8496 6.50935 28.8496 7V25C28.8496 25.4907 28.6555 25.9617 28.3086 26.3086C27.9617 26.6555 27.4907 26.8496 27 26.8496H19.3252C19.1654 26.8494 19.0083 26.8048 18.873 26.7197C18.7715 26.6558 18.6853 26.5708 18.6191 26.4717L18.5596 26.3682C18.0615 25.315 17.2743 24.425 16.29 23.8018C15.3058 23.1785 14.165 22.8467 13 22.8467C11.835 22.8467 10.6942 23.1785 9.70996 23.8018C8.78732 24.386 8.03757 25.2042 7.53711 26.1719L7.44043 26.3682C7.37114 26.5123 7.26227 26.6345 7.12695 26.7197C6.99168 26.8048 6.83464 26.8494 6.6748 26.8496H5C4.50935 26.8496 4.03835 26.6555 3.69141 26.3086C3.34446 25.9617 3.15039 25.4907 3.15039 25V7C3.15039 6.50935 3.34446 6.03835 3.69141 5.69141C4.03835 5.34446 4.50935 5.15039 5 5.15039H27ZM5 6.84961C4.96022 6.84961 4.92168 6.86542 4.89355 6.89355C4.86542 6.92168 4.84961 6.96022 4.84961 7V24.9951C4.85149 25.0356 4.86883 25.0739 4.89746 25.1025C4.92609 25.1312 4.96445 25.1485 5.00488 25.1504H6.15527C7.01534 23.6342 8.3521 22.4465 9.95703 21.7715C9.21147 21.17 8.65755 20.3631 8.37109 19.4463C8.06758 18.4747 8.07654 17.4315 8.39844 16.4658C8.72036 15.5003 9.33838 14.6606 10.1641 14.0654C10.9899 13.4702 11.9821 13.1504 13 13.1504C14.0179 13.1504 15.0101 13.4702 15.8359 14.0654C16.6616 14.6606 17.2796 15.5003 17.6016 16.4658C17.9235 17.4315 17.9324 18.4747 17.6289 19.4463C17.3424 20.3633 16.7879 21.1699 16.042 21.7715C17.6473 22.4464 18.9845 23.6339 19.8447 25.1504H27C27.0398 25.1504 27.0783 25.1346 27.1064 25.1064C27.1346 25.0783 27.1504 25.0398 27.1504 25V7C27.1504 6.96022 27.1346 6.92168 27.1064 6.89355C27.0783 6.86542 27.0398 6.84961 27 6.84961H5ZM24 9.15039C24.2254 9.15039 24.4412 9.24001 24.6006 9.39941C24.76 9.55882 24.8496 9.77457 24.8496 10V22C24.8496 22.2254 24.76 22.4412 24.6006 22.6006C24.4412 22.76 24.2254 22.8496 24 22.8496H22C21.7746 22.8496 21.5588 22.76 21.3994 22.6006C21.24 22.4412 21.1504 22.2254 21.1504 22C21.1504 21.7746 21.24 21.5588 21.3994 21.3994C21.5588 21.24 21.7746 21.1504 22 21.1504H23.1504V10.8496H8.84961V12C8.84961 12.2254 8.75999 12.4412 8.60059 12.6006C8.44118 12.76 8.22543 12.8496 8 12.8496C7.77457 12.8496 7.55882 12.76 7.39941 12.6006C7.24001 12.4412 7.15039 12.2254 7.15039 12V10C7.15039 9.77457 7.24001 9.55882 7.39941 9.39941C7.55882 9.24001 7.77457 9.15039 8 9.15039H24ZM13.6143 14.9102C13.0034 14.7887 12.3703 14.8516 11.7949 15.0898C11.2193 15.3283 10.727 15.732 10.3809 16.25C10.0347 16.768 9.84961 17.377 9.84961 18L9.85449 18.1553C9.89578 18.933 10.223 19.6703 10.7764 20.2236C11.3664 20.8137 12.1656 21.1471 13 21.1504C13.623 21.1504 14.232 20.9653 14.75 20.6191C15.268 20.273 15.6717 19.7807 15.9102 19.2051C16.1484 18.6297 16.2113 17.9966 16.0898 17.3857C15.9683 16.7747 15.6681 16.213 15.2275 15.7725C14.787 15.3319 14.2253 15.0317 13.6143 14.9102Z" fill="white" stroke="white" stroke-width="0.2"/>
</svg>
