<svg width="33" height="32" viewBox="0 0 33 32" fill="none" xmlns="http://www.w3.org/2000/svg">
<path d="M26.6665 7H24.6665V6C24.666 5.46973 24.4551 4.96133 24.0801 4.58637C23.7052 4.21141 23.1968 4.00053 22.6665 4H10.6665C10.1362 4.00053 9.62783 4.21141 9.25287 4.58637C8.87792 4.96133 8.66703 5.46973 8.6665 6V7H6.6665C6.13623 7.00053 5.62783 7.21141 5.25288 7.58637C4.87792 7.96133 4.66703 8.46973 4.6665 9V12C4.66783 13.0605 5.08968 14.0771 5.83954 14.827C6.5894 15.5768 7.60604 15.9987 8.6665 16H8.9885C9.40521 17.5307 10.2586 18.907 11.4445 19.9607C12.6304 21.0145 14.0974 21.7002 15.6665 21.934V26H10.6665V28H22.6665V26H17.6665V21.931C19.256 21.7345 20.7493 21.0635 21.9516 20.0054C23.154 18.9474 24.0095 17.5516 24.4065 16H24.6665C25.727 15.9987 26.7436 15.5768 27.4935 14.827C28.2433 14.0771 28.6652 13.0605 28.6665 12V9C28.666 8.46973 28.4551 7.96133 28.0801 7.58637C27.7052 7.21141 27.1968 7.00053 26.6665 7ZM8.6665 14C8.13623 13.9995 7.62783 13.7886 7.25287 13.4136C6.87792 13.0387 6.66703 12.5303 6.6665 12V9H8.6665V14ZM22.6665 14C22.6665 14.8036 22.5051 15.599 22.1918 16.339C21.8785 17.079 21.4198 17.7485 20.8428 18.3078C20.2659 18.8672 19.5824 19.3049 18.8331 19.5951C18.0837 19.8852 17.2837 20.0219 16.4805 19.997C14.8883 19.8979 13.3956 19.1889 12.3127 18.0174C11.2299 16.8459 10.6403 15.3021 10.6665 13.707V6H22.6665V14ZM26.6665 12C26.666 12.5303 26.4551 13.0387 26.0801 13.4136C25.7052 13.7886 25.1968 13.9995 24.6665 14V9H26.6665V12Z" fill="white"/>
</svg>
