<svg width="32" height="32" viewBox="0 0 32 32" fill="none" xmlns="http://www.w3.org/2000/svg">
<path d="M16.688 3L16.375 3.281L9.594 10H5V26H21.844C23.254 26 24.484 25.004 24.781 23.625L26.938 13.625C27.331 11.777 25.887 10 24 10H18.25L18.438 9.25C18.641 9.094 18.77 9.027 19.063 8.625C19.531 7.985 20 6.992 20 5.656C20 4.23 18.71 3 17.094 3H16.688ZM17.406 5.094C17.828 5.176 18 5.348 18 5.656C18 6.559 17.727 7.117 17.469 7.469C17.211 7.82 17.031 7.906 17.031 7.906L16.688 8.094L16.563 8.5L15.969 10.75L15.656 12H24C24.66 12 25.105 12.574 24.969 13.219L22.844 23.219C22.792 23.444 22.6643 23.6444 22.4823 23.7866C22.3003 23.9288 22.0749 24.0041 21.844 24H11V11.406L17.406 5.094ZM7 12H9V24H7V12Z" fill="white"/>
</svg>
