<svg width="31" height="22" viewBox="0 0 31 22" fill="none" xmlns="http://www.w3.org/2000/svg">
<path d="M29.3335 19.6504C29.8029 19.6504 30.1831 20.0306 30.1831 20.5C30.1831 20.9694 29.8029 21.3496 29.3335 21.3496H1.3335C0.864054 21.3496 0.483887 20.9694 0.483887 20.5C0.483887 20.0306 0.864054 19.6504 1.3335 19.6504H29.3335ZM26.3335 0.150391C26.8241 0.150391 27.2951 0.344464 27.6421 0.691406C27.989 1.03835 28.1831 1.50935 28.1831 2V16C28.1831 16.4907 27.989 16.9617 27.6421 17.3086C27.2951 17.6555 26.8241 17.8496 26.3335 17.8496H21.6587C21.4989 17.8494 21.3418 17.8048 21.2065 17.7197C21.105 17.6558 21.0188 17.5708 20.9526 17.4717L20.8931 17.3682C20.395 16.315 19.6078 15.425 18.6235 14.8018C17.6393 14.1785 16.4985 13.8467 15.3335 13.8467C14.1685 13.8467 13.0277 14.1785 12.0435 14.8018C11.1208 15.386 10.3711 16.2042 9.87061 17.1719L9.77393 17.3682C9.70463 17.5123 9.59577 17.6345 9.46045 17.7197C9.32517 17.8048 9.16813 17.8494 9.0083 17.8496H4.3335C3.84285 17.8496 3.37184 17.6555 3.0249 17.3086C2.67796 16.9617 2.48389 16.4907 2.48389 16V2C2.48389 1.50935 2.67796 1.03835 3.0249 0.691406C3.37184 0.344464 3.84285 0.150391 4.3335 0.150391H26.3335ZM4.3335 1.84961C4.29371 1.84961 4.25518 1.86542 4.22705 1.89355C4.19892 1.92168 4.18311 1.96022 4.18311 2V15.9951C4.18499 16.0356 4.20233 16.0739 4.23096 16.1025C4.25958 16.1312 4.29794 16.1485 4.33838 16.1504H8.48877C9.34883 14.6342 10.6856 13.4465 12.2905 12.7715C11.545 12.17 10.991 11.3631 10.7046 10.4463C10.4011 9.47466 10.41 8.43151 10.7319 7.46582C11.0539 6.50026 11.6719 5.66056 12.4976 5.06543C13.3233 4.47024 14.3156 4.15039 15.3335 4.15039C16.3514 4.15039 17.3436 4.47024 18.1694 5.06543C18.9951 5.66056 19.6131 6.50026 19.9351 7.46582C20.257 8.43151 20.2659 9.47466 19.9624 10.4463C19.6759 11.3633 19.1213 12.1699 18.3755 12.7715C19.9808 13.4464 21.318 14.6339 22.1782 16.1504H26.3335C26.3733 16.1504 26.4118 16.1346 26.4399 16.1064C26.4681 16.0783 26.4839 16.0398 26.4839 16V2C26.4839 1.96022 26.4681 1.92168 26.4399 1.89355C26.4118 1.86542 26.3733 1.84961 26.3335 1.84961H4.3335ZM15.9478 5.91016C15.3369 5.78872 14.7038 5.85157 14.1284 6.08984C13.5528 6.32826 13.0605 6.73199 12.7144 7.25C12.3682 7.76801 12.1831 8.377 12.1831 9L12.188 9.15527C12.2293 9.93305 12.5565 10.6703 13.1099 11.2236C13.6999 11.8137 14.4991 12.1471 15.3335 12.1504C15.9565 12.1504 16.5655 11.9653 17.0835 11.6191C17.6015 11.273 18.0052 10.7807 18.2437 10.2051C18.4819 9.62968 18.5448 8.99657 18.4233 8.38574C18.3018 7.7747 18.0016 7.213 17.561 6.77246C17.1205 6.33193 16.5588 6.0317 15.9478 5.91016Z" fill="white" stroke="white" stroke-width="0.2" stroke-linecap="round"/>
</svg>
