<svg width="116" height="48" viewBox="0 0 116 48" fill="none" xmlns="http://www.w3.org/2000/svg">
<path d="M99.242 35.7824C98.1614 35.7824 97.2908 34.9118 97.2908 33.8312V11.6173C97.2908 9.21576 99.242 7.26454 101.644 7.26454H109.749C110.679 7.26454 111.43 6.51407 111.43 5.58349C111.43 4.65291 110.679 3.90244 109.749 3.90244H83.1219C82.1914 3.90244 81.4409 4.65291 81.4409 5.58349C81.4409 6.51407 82.1914 7.26454 83.1219 7.26454C84.2026 7.26454 85.0732 8.13509 85.0732 9.21576C85.0732 10.2964 84.2026 11.167 83.1219 11.167C80.03 11.167 77.5385 8.64541 77.5385 5.58349C77.5385 2.49156 80.06 0 83.1219 0H109.749C112.841 0 115.332 2.52158 115.332 5.58349C115.332 8.67543 112.811 11.167 109.749 11.167H101.644C101.403 11.167 101.193 11.3771 101.193 11.6173V33.8312C101.193 34.9118 100.323 35.7824 99.242 35.7824Z" fill="#0053E2"/>
<path d="M18.3115 35.7824H1.95122C0.870545 35.7824 0 34.9118 0 33.8312V7.65479C0 6.57411 0.870545 5.70357 1.95122 5.70357C3.0319 5.70357 3.90244 6.57411 3.90244 7.65479V31.8799H18.3115C22.424 31.8799 25.7861 28.5178 25.7861 24.4053C25.7861 20.2927 22.424 16.9306 18.3115 16.9306C17.2308 16.9306 16.3602 16.06 16.3602 14.9794C16.3602 13.8987 17.2308 13.0281 18.3115 13.0281H19.182C21.7036 13.0281 23.7449 10.9869 23.7449 8.46529C23.7449 5.94372 21.7036 3.90244 19.182 3.90244H1.95122C0.870545 3.90244 0 3.0319 0 1.95122C0 0.870545 0.870545 0 1.95122 0H19.152C23.8349 0 27.6173 3.81238 27.6173 8.46529C27.6173 11.0769 26.4465 13.3884 24.5854 14.9494C27.6473 16.9906 29.6586 20.4728 29.6586 24.4053C29.6886 30.6792 24.5854 35.7824 18.3115 35.7824Z" fill="#0053E2"/>
<path d="M50.0712 20.5928C51.5633 20.5928 52.7729 19.3832 52.7729 17.8911C52.7729 16.399 51.5633 15.1895 50.0712 15.1895C48.5791 15.1895 47.3695 16.399 47.3695 17.8911C47.3695 19.3832 48.5791 20.5928 50.0712 20.5928Z" fill="#0053E2"/>
<path d="M59.5872 20.5928C61.0793 20.5928 62.2889 19.3832 62.2889 17.8911C62.2889 16.399 61.0793 15.1895 59.5872 15.1895C58.0951 15.1895 56.8855 16.399 56.8855 17.8911C56.8855 19.3832 58.0951 20.5928 59.5872 20.5928Z" fill="#0053E2"/>
<path d="M93.4485 35.0315C92.7881 35.0315 92.2477 34.4912 92.2477 33.8308V11.6169C92.2477 10.9565 91.7074 10.4162 91.047 10.4162H89.7261C89.0657 10.4162 88.5254 9.87581 88.5254 9.2154C88.5254 8.55499 89.0657 8.01465 89.7261 8.01465H91.047C93.0282 8.01465 94.6492 9.63566 94.6492 11.6169V33.8308C94.6492 34.4912 94.1089 35.0315 93.4485 35.0315Z" fill="#0053E2"/>
<path d="M18.4315 30.349H6.78425C6.12383 30.349 5.5835 29.8087 5.5835 29.1483V20.0826C5.5835 19.4222 6.12383 18.8818 6.78425 18.8818C7.44466 18.8818 7.985 19.4222 7.985 20.0826V27.9775H18.4315C20.3227 27.9775 21.8537 26.4466 21.8537 24.5554C21.8537 23.895 22.394 23.3546 23.0544 23.3546C23.7148 23.3546 24.2552 23.895 24.2552 24.5554C24.2552 27.7374 21.6435 30.349 18.4315 30.349Z" fill="#0053E2"/>
<path d="M64.5104 0.390625H47.0995C46.0189 0.390625 45.1483 1.26117 45.1483 2.34185C45.1483 3.42252 46.0189 4.29307 47.0995 4.29307H64.5104C66.7318 4.29307 68.563 6.12421 68.563 8.3456V24.0454C68.563 25.1261 69.4335 25.9966 70.5142 25.9966C71.5949 25.9966 72.4654 25.1261 72.4654 24.0454V8.3456C72.4654 3.96286 68.8932 0.390625 64.5104 0.390625Z" fill="#FF7600"/>
<path d="M62.9193 31.7299H45.5084C43.2871 31.7299 41.4559 29.8988 41.4559 27.6774V11.9776C41.4559 10.8969 40.5854 10.0264 39.5047 10.0264C38.424 10.0264 37.5535 10.8969 37.5535 11.9776V27.6774C37.5535 32.0601 41.1257 35.6324 45.5084 35.6324H62.9193C64 35.6324 64.8706 34.7618 64.8706 33.6812C64.8706 32.6005 64 31.7299 62.9193 31.7299Z" fill="#FF7600"/>
<g opacity="0.9">
<path opacity="0.5" d="M1.38087 44.4572H0.0300293V43.6768H3.69232V44.4572H2.34148V47.8794H1.38087V44.4572Z" fill="#3C404B"/>
<path opacity="0.5" d="M8.79562 47.0696V47.8501H5.55359V43.6475H8.73558V44.428H6.51419V45.3285H8.46541V46.079H6.51419V47.0396H8.79562V47.0696Z" fill="#3C404B"/>
<path opacity="0.5" d="M11.7374 47.6697C11.3772 47.4896 11.107 47.2194 10.9269 46.8892C10.7168 46.559 10.6267 46.1988 10.6267 45.7785C10.6267 45.3583 10.7168 44.9981 10.9269 44.6678C11.137 44.3376 11.4072 44.0675 11.7374 43.8874C12.0976 43.7072 12.4579 43.6172 12.9081 43.6172C13.2684 43.6172 13.5986 43.6772 13.8988 43.7973C14.1989 43.9174 14.4391 44.0975 14.6492 44.3376L14.0188 44.908C13.7487 44.5778 13.3884 44.4277 12.9682 44.4277C12.698 44.4277 12.4879 44.4877 12.2777 44.6078C12.0676 44.7279 11.9175 44.878 11.7974 45.0881C11.6774 45.2982 11.6173 45.5384 11.6173 45.7785C11.6173 46.0487 11.6774 46.2588 11.7974 46.469C11.9175 46.6791 12.0676 46.8292 12.2777 46.9493C12.4879 47.0693 12.728 47.1294 12.9682 47.1294C13.3884 47.1294 13.7487 46.9493 14.0188 46.6191L14.6492 47.1894C14.4391 47.4296 14.1989 47.6097 13.8988 47.7598C13.5986 47.8799 13.2684 47.9399 12.9081 47.9399C12.4579 47.9399 12.0676 47.8498 11.7374 47.6697Z" fill="#3C404B"/>
<path opacity="0.5" d="M20.4427 43.6475V47.8501H19.4821V46.139H17.5609V47.8501H16.6003V43.6475H17.5609V45.2985H19.4821V43.6475H20.4427Z" fill="#3C404B"/>
<path opacity="0.5" d="M25.7863 43.6475H27.7075C28.1577 43.6475 28.578 43.7375 28.9082 43.9176C29.2684 44.0977 29.5386 44.3379 29.7187 44.6681C29.8988 44.9983 30.0189 45.3585 30.0189 45.7788C30.0189 46.1991 29.9288 46.5593 29.7187 46.8895C29.5386 47.2197 29.2384 47.4598 28.9082 47.64C28.548 47.8201 28.1577 47.9101 27.7075 47.9101H25.7863V43.6475ZM27.6474 47.0696C28.0677 47.0696 28.3979 46.9495 28.6681 46.7094C28.9082 46.4692 29.0283 46.169 29.0283 45.7488C29.0283 45.3285 28.9082 45.0283 28.6681 44.7882C28.4279 44.548 28.0677 44.428 27.6474 44.428H26.7469V47.0396H27.6474V47.0696Z" fill="#3C404B"/>
<path opacity="0.5" d="M32.0601 43.6475H33.0207V47.8501H32.0601V43.6475Z" fill="#3C404B"/>
<path opacity="0.5" d="M39.3847 43.6475L37.5536 47.8501H36.593L34.7919 43.6475H35.8425L37.1333 46.6493L38.4241 43.6475H39.3847Z" fill="#3C404B"/>
<path opacity="0.5" d="M44.3077 47.0696V47.8501H41.0657V43.6475H44.2477V44.428H42.0263V45.3285H43.9775V46.079H42.0263V47.0396H44.3077V47.0696Z" fill="#3C404B"/>
<path opacity="0.5" d="M49.0806 47.8501L48.2701 46.6794H48.2101H47.3695V47.8501H46.4089V43.6475H48.2401C48.6003 43.6475 48.9305 43.7075 49.2007 43.8276C49.4709 43.9477 49.681 44.1278 49.8311 44.3679C49.9812 44.6081 50.0412 44.8782 50.0412 45.1784C50.0412 45.4786 49.9812 45.7488 49.8011 45.9889C49.651 46.2291 49.4408 46.3792 49.1707 46.4992L50.1012 47.8501H49.0806ZM48.8405 44.6381C48.6904 44.518 48.4802 44.458 48.18 44.458H47.3996V45.9289H48.18C48.4802 45.9289 48.6904 45.8689 48.8405 45.7488C48.9906 45.6287 49.0806 45.4486 49.0806 45.2084C49.0506 44.9383 48.9906 44.7582 48.8405 44.6381Z" fill="#3C404B"/>
<path opacity="0.5" d="M52.563 47.7898C52.2628 47.6997 51.9926 47.5797 51.8125 47.4296L52.1427 46.7091C52.3228 46.8292 52.5329 46.9493 52.7731 47.0393C53.0133 47.1294 53.2834 47.1594 53.5236 47.1594C53.7937 47.1594 54.0039 47.1294 54.1239 47.0393C54.244 46.9493 54.3341 46.8592 54.3341 46.7091C54.3341 46.6191 54.3041 46.529 54.214 46.469C54.1239 46.4089 54.0339 46.3489 53.9138 46.3189C53.7937 46.2889 53.6136 46.2288 53.4335 46.1988C53.1033 46.1087 52.8632 46.0487 52.653 45.9586C52.4429 45.8686 52.2628 45.7485 52.1127 45.5984C51.9626 45.4183 51.9026 45.2082 51.9026 44.938C51.9026 44.6979 51.9626 44.4877 52.1127 44.2776C52.2628 44.0675 52.4429 43.9174 52.7131 43.7973C52.9832 43.6772 53.3134 43.6172 53.6737 43.6172C53.9438 43.6172 54.214 43.6472 54.4542 43.7072C54.7243 43.7673 54.9345 43.8573 55.1146 43.9774L54.8144 44.7279C54.4241 44.5177 54.0339 44.3977 53.6436 44.3977C53.3735 44.3977 53.1633 44.4277 53.0433 44.5178C52.9232 44.6078 52.8632 44.7279 52.8632 44.878C52.8632 45.0281 52.9232 45.1181 53.1033 45.2082C53.2834 45.2982 53.4936 45.3583 53.7937 45.4183C54.1239 45.5084 54.3641 45.5684 54.5742 45.6585C54.7844 45.7485 54.9645 45.8686 55.1146 46.0187C55.2647 46.1688 55.3247 46.4089 55.3247 46.6791C55.3247 46.9193 55.2647 47.1294 55.1146 47.3395C54.9645 47.5496 54.7844 47.6997 54.5142 47.8198C54.244 47.9399 53.9138 47.9999 53.5236 47.9999C53.1934 47.9399 52.8632 47.8799 52.563 47.7898Z" fill="#3C404B"/>
<path opacity="0.5" d="M57.2758 43.6475H58.2364V47.8501H57.2758V43.6475Z" fill="#3C404B"/>
<path opacity="0.5" d="M61.4485 44.4572H60.0977V43.6768H63.7599V44.4572H62.4091V47.8794H61.4485V44.4572Z" fill="#3C404B"/>
<path opacity="0.5" d="M67.5423 46.3784V47.8794H66.5817V46.3784L64.9607 43.6768H65.9813L67.092 45.5379L68.2027 43.6768H69.1633L67.5423 46.3784Z" fill="#3C404B"/>
<path opacity="0.5" d="M76.6979 46.9495H74.7467L74.3865 47.8501H73.3959L75.257 43.6475H76.2176L78.1088 47.8501H77.0882L76.6979 46.9495ZM76.3978 46.2291L75.7373 44.6081L75.0769 46.2291H76.3978Z" fill="#3C404B"/>
<path opacity="0.5" d="M80.5104 44.4572H79.1595V43.6768H82.8218V44.4572H81.471V47.8794H80.5104V44.4572Z" fill="#3C404B"/>
<path opacity="0.5" d="M88.105 47.7898C87.8048 47.6997 87.5346 47.5797 87.3545 47.4296L87.6847 46.7091C87.8648 46.8292 88.0749 46.9493 88.3151 47.0393C88.5552 47.1294 88.8254 47.1594 89.0656 47.1594C89.3357 47.1594 89.5459 47.1294 89.6659 47.0393C89.786 46.9493 89.8761 46.8592 89.8761 46.7091C89.8761 46.6191 89.8461 46.529 89.756 46.469C89.6659 46.4089 89.5759 46.3489 89.4558 46.3189C89.3357 46.2889 89.1556 46.2288 88.9455 46.1988C88.6153 46.1087 88.3751 46.0487 88.165 45.9586C87.9549 45.8686 87.7748 45.7485 87.6247 45.5984C87.4746 45.4183 87.4145 45.2082 87.4145 44.938C87.4145 44.6979 87.4746 44.4877 87.6247 44.2776C87.7447 44.0675 87.9549 43.9174 88.225 43.7973C88.4952 43.6772 88.8254 43.6172 89.1856 43.6172C89.4558 43.6172 89.726 43.6472 89.9661 43.7072C90.2063 43.7673 90.4464 43.8573 90.6265 43.9774L90.3263 44.7279C89.9361 44.5177 89.5459 44.3977 89.1556 44.3977C88.8854 44.3977 88.6753 44.4277 88.5552 44.5178C88.4352 44.6078 88.3751 44.7279 88.3751 44.878C88.3751 45.0281 88.4352 45.1181 88.6153 45.2082C88.7954 45.2982 89.0055 45.3583 89.3057 45.4183C89.6359 45.5084 89.8761 45.5684 90.0862 45.6585C90.2963 45.7485 90.4764 45.8686 90.6265 46.0187C90.7766 46.1688 90.8367 46.4089 90.8367 46.6791C90.8367 46.9193 90.7766 47.1294 90.6265 47.3395C90.4764 47.5496 90.2963 47.6997 90.0262 47.8198C89.756 47.9399 89.4258 47.9999 89.0355 47.9999C88.7354 47.9399 88.4051 47.8799 88.105 47.7898Z" fill="#3C404B"/>
<path opacity="0.5" d="M93.6887 47.6697C93.3285 47.4896 93.0583 47.2194 92.8782 46.8892C92.6681 46.559 92.578 46.1988 92.578 45.7785C92.578 45.3583 92.6681 44.9981 92.8782 44.6678C93.0883 44.3376 93.3585 44.0675 93.6887 43.8874C94.0489 43.7072 94.4092 43.6172 94.8594 43.6172C95.2197 43.6172 95.5499 43.6772 95.8501 43.7973C96.1502 43.9174 96.3904 44.0975 96.6005 44.3376L95.9701 44.908C95.7 44.5778 95.3397 44.4277 94.9195 44.4277C94.6493 44.4277 94.4392 44.4877 94.229 44.6078C94.0189 44.7279 93.8688 44.878 93.7487 45.0881C93.6287 45.2982 93.5686 45.5384 93.5686 45.7785C93.5686 46.0487 93.6287 46.2588 93.7487 46.469C93.8688 46.6791 94.0189 46.8292 94.229 46.9493C94.4392 47.0693 94.6793 47.1294 94.9195 47.1294C95.3397 47.1294 95.7 46.9493 95.9701 46.6191L96.6005 47.1894C96.3904 47.4296 96.1502 47.6097 95.8501 47.7598C95.5499 47.8799 95.2197 47.9399 94.8594 47.9399C94.4092 47.9399 94.0189 47.8498 93.6887 47.6697Z" fill="#3C404B"/>
<path opacity="0.5" d="M101.253 46.9495H99.3023L98.942 47.8501H97.9514L99.8126 43.6475H100.773L102.664 47.8501H101.644L101.253 46.9495ZM100.923 46.2291L100.263 44.6081L99.6024 46.2291H100.923Z" fill="#3C404B"/>
<path opacity="0.5" d="M104.405 43.6475H105.366V47.0696H107.467V47.8501H104.375V43.6475H104.405Z" fill="#3C404B"/>
<path opacity="0.5" d="M112.6 47.0696V47.8501H109.358V43.6475H112.54V44.428H110.319V45.3285H112.27V46.079H110.319V47.0396H112.6V47.0696Z" fill="#3C404B"/>
</g>
</svg>
