<svg width="123" height="51" viewBox="0 0 123 51" fill="none" xmlns="http://www.w3.org/2000/svg">
<path d="M105.445 38.0188C104.296 38.0188 103.371 37.0938 103.371 35.9456V12.3433C103.371 9.79175 105.445 7.71857 107.996 7.71857H116.608C117.597 7.71857 118.394 6.9212 118.394 5.93246C118.394 4.94372 117.597 4.14634 116.608 4.14634H88.317C87.3282 4.14634 86.5309 4.94372 86.5309 5.93246C86.5309 6.9212 87.3282 7.71857 88.317 7.71857C89.4652 7.71857 90.3901 8.64353 90.3901 9.79175C90.3901 10.94 89.4652 11.8649 88.317 11.8649C85.0318 11.8649 82.3845 9.18574 82.3845 5.93246C82.3845 2.64728 85.0637 0 88.317 0H116.608C119.893 0 122.54 2.67917 122.54 5.93246C122.54 9.21764 119.861 11.8649 116.608 11.8649H107.996C107.741 11.8649 107.518 12.0882 107.518 12.3433V35.9456C107.518 37.0938 106.593 38.0188 105.445 38.0188Z" fill="white"/>
<path d="M19.4559 38.0188H2.07317C0.924953 38.0188 0 37.0938 0 35.9456V8.13321C0 6.98499 0.924953 6.06004 2.07317 6.06004C3.22139 6.06004 4.14634 6.98499 4.14634 8.13321V33.8724H19.4559C23.8255 33.8724 27.3978 30.3002 27.3978 25.9306C27.3978 21.561 23.8255 17.9887 19.4559 17.9887C18.3077 17.9887 17.3827 17.0638 17.3827 15.9156C17.3827 14.7674 18.3077 13.8424 19.4559 13.8424H20.3809C23.06 13.8424 25.2289 11.6735 25.2289 8.99437C25.2289 6.3152 23.06 4.14634 20.3809 4.14634H2.07317C0.924953 4.14634 0 3.22139 0 2.07317C0 0.924953 0.924953 0 2.07317 0H20.349C25.3246 0 29.3433 4.05066 29.3433 8.99437C29.3433 11.7692 28.0994 14.2251 26.122 15.8837C29.3752 18.0525 31.5122 21.7523 31.5122 25.9306C31.5441 32.5966 26.122 38.0188 19.4559 38.0188Z" fill="white"/>
<path d="M53.2006 21.8798C54.786 21.8798 56.0712 20.5946 56.0712 19.0092C56.0712 17.4239 54.786 16.1387 53.2006 16.1387C51.6153 16.1387 50.3301 17.4239 50.3301 19.0092C50.3301 20.5946 51.6153 21.8798 53.2006 21.8798Z" fill="white"/>
<path d="M63.3115 21.8798C64.8968 21.8798 66.182 20.5946 66.182 19.0092C66.182 17.4239 64.8968 16.1387 63.3115 16.1387C61.7261 16.1387 60.4409 17.4239 60.4409 19.0092C60.4409 20.5946 61.7261 21.8798 63.3115 21.8798Z" fill="white"/>
<path d="M99.2889 37.2216C98.5872 37.2216 98.0131 36.6474 98.0131 35.9458V12.3435C98.0131 11.6418 97.439 11.0677 96.7373 11.0677H95.3339C94.6322 11.0677 94.0581 10.4936 94.0581 9.79191C94.0581 9.09022 94.6322 8.51611 95.3339 8.51611H96.7373C98.8424 8.51611 100.565 10.2384 100.565 12.3435V35.9458C100.565 36.6474 99.9906 37.2216 99.2889 37.2216Z" fill="white"/>
<path d="M19.5835 32.2459H7.20829C6.5066 32.2459 5.9325 31.6718 5.9325 30.9701V21.3378C5.9325 20.6361 6.5066 20.062 7.20829 20.062C7.90998 20.062 8.48409 20.6361 8.48409 21.3378V29.7262H19.5835C21.5929 29.7262 23.2195 28.0995 23.2195 26.0902C23.2195 25.3885 23.7937 24.8144 24.4953 24.8144C25.197 24.8144 25.7711 25.3885 25.7711 26.0902C25.7711 29.471 22.9963 32.2459 19.5835 32.2459Z" fill="white"/>
<path d="M68.5422 0.414551H50.0431C48.8949 0.414551 47.97 1.3395 47.97 2.48772C47.97 3.63594 48.8949 4.56089 50.0431 4.56089H68.5422C70.9024 4.56089 72.848 6.50648 72.848 8.86671V25.5478C72.848 26.696 73.773 27.6209 74.9212 27.6209C76.0694 27.6209 76.9944 26.696 76.9944 25.5478V8.86671C76.9944 4.21005 73.1989 0.414551 68.5422 0.414551Z" fill="white"/>
<path d="M66.8517 33.7129H48.3527C45.9924 33.7129 44.0469 31.7673 44.0469 29.4071V12.726C44.0469 11.5778 43.1219 10.6528 41.9737 10.6528C40.8255 10.6528 39.9005 11.5778 39.9005 12.726V29.4071C39.9005 34.0637 43.696 37.8592 48.3527 37.8592H66.8517C68 37.8592 68.9249 36.9343 68.9249 35.786C68.9249 34.6378 68 33.7129 66.8517 33.7129Z" fill="white"/>
<g opacity="0.9">
<path opacity="0.5" d="M1.46713 47.2365H0.0318604V46.4072H3.92304V47.2365H2.48777V50.8725H1.46713V47.2365Z" fill="white"/>
<path opacity="0.5" d="M9.34529 50.011V50.8403H5.90063V46.375H9.2815V47.2043H6.92127V48.1611H8.99444V48.9585H6.92127V49.9791H9.34529V50.011Z" fill="white"/>
<path opacity="0.5" d="M12.4709 50.6491C12.0881 50.4577 11.8011 50.1707 11.6097 49.8198C11.3865 49.469 11.2908 49.0862 11.2908 48.6397C11.2908 48.1932 11.3865 47.8104 11.6097 47.4596C11.833 47.1087 12.12 46.8217 12.4709 46.6303C12.8536 46.4389 13.2364 46.3433 13.7148 46.3433C14.0975 46.3433 14.4484 46.407 14.7673 46.5346C15.0863 46.6622 15.3414 46.8536 15.5647 47.1087L14.8949 47.7147C14.6078 47.3639 14.2251 47.2044 13.7786 47.2044C13.4915 47.2044 13.2683 47.2682 13.045 47.3958C12.8217 47.5234 12.6623 47.6828 12.5347 47.9061C12.4071 48.1294 12.3433 48.3845 12.3433 48.6397C12.3433 48.9268 12.4071 49.15 12.5347 49.3733C12.6623 49.5965 12.8217 49.756 13.045 49.8836C13.2683 50.0112 13.5234 50.075 13.7786 50.075C14.2251 50.075 14.6078 49.8836 14.8949 49.5328L15.5647 50.1388C15.3414 50.3939 15.0863 50.5853 14.7673 50.7448C14.4484 50.8723 14.0975 50.9361 13.7148 50.9361C13.2364 50.9361 12.8217 50.8404 12.4709 50.6491Z" fill="white"/>
<path opacity="0.5" d="M21.7204 46.375V50.8403H20.6997V49.0223H18.6585V50.8403H17.6378V46.375H18.6585V48.1292H20.6997V46.375H21.7204Z" fill="white"/>
<path opacity="0.5" d="M27.3978 46.375H29.4391C29.9175 46.375 30.3641 46.4707 30.7149 46.6621C31.0976 46.8534 31.3847 47.1086 31.5761 47.4594C31.7674 47.8103 31.895 48.193 31.895 48.6395C31.895 49.0861 31.7993 49.4688 31.5761 49.8197C31.3847 50.1705 31.0657 50.4257 30.7149 50.617C30.3322 50.8084 29.9175 50.9041 29.4391 50.9041H27.3978V46.375ZM29.3753 50.011C29.8218 50.011 30.1727 49.8834 30.4597 49.6283C30.7149 49.3731 30.8425 49.0542 30.8425 48.6076C30.8425 48.1611 30.7149 47.8422 30.4597 47.587C30.2046 47.3318 29.8218 47.2043 29.3753 47.2043H28.4185V49.9791H29.3753V50.011Z" fill="white"/>
<path opacity="0.5" d="M34.0637 46.375H35.0844V50.8403H34.0637V46.375Z" fill="white"/>
<path opacity="0.5" d="M41.8462 46.375L39.9006 50.8403H38.88L36.9663 46.375H38.0826L39.4541 49.5645L40.8256 46.375H41.8462Z" fill="white"/>
<path opacity="0.5" d="M47.0769 50.011V50.8403H43.6322V46.375H47.0131V47.2043H44.6528V48.1611H46.726V48.9585H44.6528V49.9791H47.0769V50.011Z" fill="white"/>
<path opacity="0.5" d="M52.1481 50.8403L51.2869 49.5964H51.2231H50.3301V50.8403H49.3094V46.375H51.255C51.6378 46.375 51.9886 46.4388 52.2757 46.5664C52.5627 46.694 52.786 46.8853 52.9455 47.1405C53.1049 47.3956 53.1687 47.6827 53.1687 48.0016C53.1687 48.3206 53.1049 48.6076 52.9136 48.8628C52.7541 49.118 52.5308 49.2774 52.2438 49.405L53.2325 50.8403H52.1481ZM51.8929 47.4275C51.7335 47.3 51.5102 47.2362 51.1912 47.2362H50.362V48.799H51.1912C51.5102 48.799 51.7335 48.7352 51.8929 48.6076C52.0524 48.4801 52.1481 48.2887 52.1481 48.0335C52.1162 47.7465 52.0524 47.5551 51.8929 47.4275Z" fill="white"/>
<path opacity="0.5" d="M55.8482 50.7767C55.5292 50.681 55.2422 50.5534 55.0508 50.3939L55.4016 49.6284C55.593 49.756 55.8163 49.8836 56.0714 49.9793C56.3266 50.075 56.6136 50.1069 56.8688 50.1069C57.1558 50.1069 57.3791 50.075 57.5067 49.9793C57.6343 49.8836 57.73 49.7879 57.73 49.6284C57.73 49.5328 57.6981 49.4371 57.6024 49.3733C57.5067 49.3095 57.411 49.2457 57.2834 49.2138C57.1558 49.1819 56.9645 49.1181 56.7731 49.0862C56.4223 48.9905 56.1671 48.9267 55.9438 48.8311C55.7206 48.7354 55.5292 48.6078 55.3697 48.4483C55.2103 48.257 55.1465 48.0337 55.1465 47.7466C55.1465 47.4915 55.2103 47.2682 55.3697 47.0449C55.5292 46.8217 55.7206 46.6622 56.0076 46.5346C56.2947 46.407 56.6455 46.3433 57.0283 46.3433C57.3153 46.3433 57.6024 46.3752 57.8575 46.4389C58.1446 46.5027 58.3679 46.5984 58.5592 46.726L58.2403 47.5234C57.8256 47.3001 57.411 47.1725 56.9964 47.1725C56.7093 47.1725 56.4861 47.2044 56.3585 47.3001C56.2309 47.3958 56.1671 47.5234 56.1671 47.6828C56.1671 47.8423 56.2309 47.938 56.4223 48.0337C56.6136 48.1294 56.8369 48.1932 57.1558 48.257C57.5067 48.3526 57.7618 48.4164 57.9851 48.5121C58.2084 48.6078 58.3997 48.7354 58.5592 48.8949C58.7187 49.0543 58.7825 49.3095 58.7825 49.5965C58.7825 49.8517 58.7187 50.075 58.5592 50.2982C58.3997 50.5215 58.2084 50.681 57.9213 50.8086C57.6343 50.9361 57.2834 50.9999 56.8688 50.9999C56.5179 50.9361 56.1671 50.8723 55.8482 50.7767Z" fill="white"/>
<path opacity="0.5" d="M60.8555 46.375H61.8761V50.8403H60.8555V46.375Z" fill="white"/>
<path opacity="0.5" d="M65.289 47.2365H63.8538V46.4072H67.7449V47.2365H66.3097V50.8725H65.289V47.2365Z" fill="white"/>
<path opacity="0.5" d="M71.7637 49.2778V50.8725H70.7431V49.2778L69.0208 46.4072H70.1052L71.2853 48.3847L72.4654 46.4072H73.486L71.7637 49.2778Z" fill="white"/>
<path opacity="0.5" d="M81.4915 49.8834H79.4183L79.0356 50.8403H77.983L79.9605 46.375H80.9812L82.9905 50.8403H81.9061L81.4915 49.8834ZM81.1725 49.118L80.4708 47.3956L79.7692 49.118H81.1725Z" fill="white"/>
<path opacity="0.5" d="M85.5422 47.2365H84.1069V46.4072H87.9981V47.2365H86.5628V50.8725H85.5422V47.2365Z" fill="white"/>
<path opacity="0.5" d="M93.6113 50.7767C93.2924 50.681 93.0053 50.5534 92.814 50.3939L93.1648 49.6284C93.3562 49.756 93.5794 49.8836 93.8346 49.9793C94.0898 50.075 94.3768 50.1069 94.632 50.1069C94.919 50.1069 95.1423 50.075 95.2699 49.9793C95.3975 49.8836 95.4931 49.7879 95.4931 49.6284C95.4931 49.5328 95.4612 49.4371 95.3656 49.3733C95.2699 49.3095 95.1742 49.2457 95.0466 49.2138C94.919 49.1819 94.7277 49.1181 94.5044 49.0862C94.1536 48.9905 93.8984 48.9267 93.6751 48.8311C93.4519 48.7354 93.2605 48.6078 93.101 48.4483C92.9415 48.257 92.8778 48.0337 92.8778 47.7466C92.8778 47.4915 92.9415 47.2682 93.101 47.0449C93.2286 46.8217 93.4519 46.6622 93.7389 46.5346C94.026 46.407 94.3768 46.3433 94.7596 46.3433C95.0466 46.3433 95.3337 46.3752 95.5888 46.4389C95.844 46.5027 96.0991 46.5984 96.2905 46.726L95.9716 47.5234C95.5569 47.3001 95.1423 47.1725 94.7277 47.1725C94.4406 47.1725 94.2173 47.2044 94.0898 47.3001C93.9622 47.3958 93.8984 47.5234 93.8984 47.6828C93.8984 47.8423 93.9622 47.938 94.1536 48.0337C94.3449 48.1294 94.5682 48.1932 94.8871 48.257C95.238 48.3526 95.4931 48.4164 95.7164 48.5121C95.9397 48.6078 96.131 48.7354 96.2905 48.8949C96.45 49.0543 96.5138 49.3095 96.5138 49.5965C96.5138 49.8517 96.45 50.075 96.2905 50.2982C96.131 50.5215 95.9397 50.681 95.6526 50.8086C95.3656 50.9361 95.0147 50.9999 94.6001 50.9999C94.2811 50.9361 93.9303 50.8723 93.6113 50.7767Z" fill="white"/>
<path opacity="0.5" d="M99.5441 50.6491C99.1614 50.4577 98.8743 50.1707 98.683 49.8198C98.4597 49.469 98.364 49.0862 98.364 48.6397C98.364 48.1932 98.4597 47.8104 98.683 47.4596C98.9062 47.1087 99.1933 46.8217 99.5441 46.6303C99.9269 46.4389 100.31 46.3433 100.788 46.3433C101.171 46.3433 101.522 46.407 101.841 46.5346C102.16 46.6622 102.415 46.8536 102.638 47.1087L101.968 47.7147C101.681 47.3639 101.298 47.2044 100.852 47.2044C100.565 47.2044 100.341 47.2682 100.118 47.3958C99.895 47.5234 99.7355 47.6828 99.6079 47.9061C99.4803 48.1294 99.4166 48.3845 99.4166 48.6397C99.4166 48.9268 99.4803 49.15 99.6079 49.3733C99.7355 49.5965 99.895 49.756 100.118 49.8836C100.341 50.0112 100.597 50.075 100.852 50.075C101.298 50.075 101.681 49.8836 101.968 49.5328L102.638 50.1388C102.415 50.3939 102.16 50.5853 101.841 50.7448C101.522 50.8723 101.171 50.9361 100.788 50.9361C100.31 50.9361 99.895 50.8404 99.5441 50.6491Z" fill="white"/>
<path opacity="0.5" d="M107.582 49.8834H105.509L105.126 50.8403H104.073L106.051 46.375H107.071L109.081 50.8403H107.996L107.582 49.8834ZM107.231 49.118L106.529 47.3956L105.827 49.118H107.231Z" fill="white"/>
<path opacity="0.5" d="M110.931 46.375H111.951V50.011H114.184V50.8403H110.899V46.375H110.931Z" fill="white"/>
<path opacity="0.5" d="M119.638 50.011V50.8403H116.193V46.375H119.574V47.2043H117.214V48.1611H119.287V48.9585H117.214V49.9791H119.638V50.011Z" fill="white"/>
</g>
</svg>
