<svg width="24" height="24" viewBox="0 0 24 24" fill="none" xmlns="http://www.w3.org/2000/svg">
<path d="M7.90039 2.09961V4.09961H16.0996V2.09961H17.9004V4.09961H19C20.0448 4.09961 20.9004 4.95523 20.9004 6V20C20.9004 21.0448 20.0448 21.9004 19 21.9004H5C4.49609 21.9004 4.01257 21.7001 3.65625 21.3438C3.29993 20.9874 3.09961 20.5039 3.09961 20L3.11035 6C3.11035 4.95425 3.94621 4.09961 5 4.09961H6.09961V2.09961H7.90039ZM4.90039 20.0996H19.0996V9.90039H4.90039V20.0996ZM16.9004 11.0996V12.9004H15.0996V11.0996H16.9004ZM12.9004 11.0996V12.9004H11.0996V11.0996H12.9004ZM8.90039 11.0996V12.9004H7.09961V11.0996H8.90039ZM4.90039 8.09961H19.0996V5.90039H4.90039V8.09961Z" fill="#3C404B" stroke="white" stroke-width="0.2"/>
</svg>
