<svg width="21" height="20" viewBox="0 0 21 20" fill="none" xmlns="http://www.w3.org/2000/svg">
<path d="M7.06641 1.7666V3.43359H13.9336V1.7666H15.4004V3.43359H16.333C17.1943 3.43359 17.9002 4.13871 17.9004 5V16.667C17.9004 17.5284 17.1944 18.2334 16.333 18.2334H4.66699C4.25149 18.2334 3.8524 18.0682 3.55859 17.7744C3.26499 17.4806 3.09961 17.0823 3.09961 16.667L3.1084 5C3.10857 4.13773 3.79831 3.43359 4.66699 3.43359H5.59961V1.7666H7.06641ZM4.56641 16.7666H16.4336V8.2334H4.56641V16.7666ZM14.5664 9.2666V10.7334H13.0996V9.2666H14.5664ZM11.2334 9.2666V10.7334H9.7666V9.2666H11.2334ZM7.90039 9.2666V10.7334H6.43359V9.2666H7.90039ZM4.56641 6.7666H16.4336V4.90039H4.56641V6.7666Z" fill="#FF7600" stroke="white" stroke-width="0.2"/>
</svg>
