<svg width="56" height="56" viewBox="0 0 56 56" fill="none" xmlns="http://www.w3.org/2000/svg">
<rect width="56" height="56" rx="8" fill="#0053E2"/>
<path d="M45.4004 40.5996V42.9004H10.5996V40.5996H45.4004ZM45.4004 35.5996V37.9004H10.5996V35.5996H45.4004ZM27.0439 18.1943C27.9944 18.0053 28.9797 18.1019 29.875 18.4727C30.7703 18.8435 31.5358 19.4717 32.0742 20.2773C32.6126 21.0831 32.9004 22.0309 32.9004 23L32.8936 23.2432C32.832 24.4536 32.324 25.6018 31.4629 26.4629C30.5443 27.3815 29.2991 27.8987 28 27.9004L27.6377 27.8867C26.7962 27.8243 25.9824 27.5453 25.2773 27.0742C24.4717 26.5358 23.8435 25.7703 23.4727 24.875C23.1019 23.9797 23.0053 22.9944 23.1943 22.0439C23.3834 21.0935 23.8499 20.2204 24.5352 19.5352C25.2204 18.8499 26.0935 18.3834 27.0439 18.1943ZM28 20.4004C27.4859 20.4004 26.9832 20.5523 26.5557 20.8379C26.1281 21.1236 25.7944 21.5298 25.5977 22.0049C25.4009 22.4799 25.35 23.0026 25.4502 23.5068C25.5505 24.0112 25.7975 24.4753 26.1611 24.8389C26.5248 25.2025 26.9888 25.4495 27.4932 25.5498C27.9974 25.65 28.5201 25.5991 28.9951 25.4023C29.4702 25.2056 29.8764 24.8719 30.1621 24.4443C30.4477 24.0168 30.5996 23.5141 30.5996 23L30.5869 22.7432C30.5273 22.1482 30.2644 21.5886 29.8379 21.1621C29.3505 20.6747 28.6893 20.4011 28 20.4004ZM18 20.5996C18.6365 20.5996 19.2472 20.8526 19.6973 21.3027C20.1474 21.7528 20.4004 22.3635 20.4004 23C20.4004 23.4747 20.2588 23.9383 19.9951 24.333C19.7314 24.7277 19.3565 25.0361 18.918 25.2178C18.4797 25.3992 17.9975 25.446 17.5322 25.3535C17.0667 25.2609 16.6384 25.0329 16.3027 24.6973C15.9671 24.3616 15.7391 23.9333 15.6465 23.4678C15.554 23.0025 15.6008 22.5203 15.7822 22.082C15.9639 21.6435 16.2723 21.2686 16.667 21.0049C17.0617 20.7412 17.5253 20.5996 18 20.5996ZM38 20.5996C38.6365 20.5996 39.2472 20.8526 39.6973 21.3027C40.1474 21.7528 40.4004 22.3635 40.4004 23C40.4004 23.4747 40.2588 23.9383 39.9951 24.333C39.7314 24.7277 39.3565 25.0361 38.918 25.2178C38.4797 25.3992 37.9975 25.446 37.5322 25.3535C37.0667 25.2609 36.6384 25.0329 36.3027 24.6973C35.9671 24.3616 35.7391 23.9333 35.6465 23.4678C35.554 23.0025 35.6008 22.5203 35.7822 22.082C35.9639 21.6435 36.2723 21.2686 36.667 21.0049C37.0617 20.7412 37.5253 20.5996 38 20.5996Z" fill="white" stroke="#0053E2" stroke-width="0.2"/>
<path d="M13 13.0996H43C43.636 13.1013 44.2456 13.355 44.6953 13.8047C45.145 14.2544 45.3987 14.864 45.4004 15.5V30.5L45.3877 30.7373C45.3324 31.2863 45.0899 31.8027 44.6963 32.1963C44.2464 32.6462 43.6362 32.8994 43 32.9004H13C12.364 32.8987 11.7544 32.645 11.3047 32.1953C10.855 31.7456 10.6013 31.136 10.5996 30.5V15.5C10.6013 14.864 10.855 14.2544 11.3047 13.8047C11.7544 13.355 12.364 13.1013 13 13.0996ZM12.9004 30.5996H43.0996V15.4004H12.9004V30.5996Z" fill="white" stroke="#0053E2" stroke-width="0.2"/>
</svg>
