<svg width="92" height="92" viewBox="0 0 92 92" fill="none" xmlns="http://www.w3.org/2000/svg">
<rect width="92" height="92" rx="8" fill="#FDF8F4"/>
<path d="M47.9209 29.9209C49.4798 29.9209 51.0037 30.396 52.2998 31.286C53.596 32.176 54.6063 33.4411 55.2028 34.9211C55.7994 36.4012 55.9555 38.0299 55.6513 39.6011C55.3472 41.1723 54.5965 42.6156 53.4942 43.7484C52.3919 44.8812 50.9875 45.6527 49.4586 45.9652C47.9296 46.2777 46.3449 46.1173 44.9046 45.5043C43.4644 44.8912 42.2334 43.853 41.3673 42.521C40.5013 41.1889 40.039 39.6229 40.039 38.0209C40.039 35.8726 40.8694 33.8124 42.3476 32.2933C43.8257 30.7743 45.8305 29.9209 47.9209 29.9209ZM36.3519 62.3331C34.7156 61.2164 33.7993 59.209 34.48 57.3485C34.9213 56.1426 35.6137 55.0367 36.5226 54.1145C38.1592 52.4538 40.3663 51.522 42.6663 51.5208H53.1755C55.4755 51.522 57.6826 52.4538 59.3192 54.1145C60.2281 55.0367 60.9205 56.1426 61.3618 57.3485C62.0425 59.209 61.1262 61.2164 59.4899 62.3331C56.08 64.66 52.0592 65.9209 47.9209 65.9209C43.7826 65.9209 39.7618 64.66 36.3519 62.3331Z" stroke="#FF7600" stroke-width="3"/>
</svg>
