<svg width="92" height="92" viewBox="0 0 92 92" fill="none" xmlns="http://www.w3.org/2000/svg">
<rect width="92" height="92" rx="8" fill="#FDF8F4"/>
<path d="M59.8019 33.5804H57.0419V32.2004C57.0412 31.4687 56.7502 30.7671 56.2327 30.2496C55.7153 29.7322 55.0137 29.4412 54.2819 29.4404H37.7219C36.9901 29.4412 36.2885 29.7322 35.7711 30.2496C35.2536 30.7671 34.9626 31.4687 34.9619 32.2004V33.5804H32.2019C31.4701 33.5812 30.7685 33.8722 30.2511 34.3896C29.7336 34.9071 29.4426 35.6087 29.4419 36.3404V40.4804C29.4437 41.9439 30.0259 43.3468 31.0607 44.3816C32.0955 45.4164 33.4985 45.9986 34.9619 46.0004H35.4063C35.9813 48.1128 37.159 50.0121 38.7955 51.4662C40.432 52.9204 42.4566 53.8666 44.6219 54.1894V59.8004H37.7219V62.5604H54.2819V59.8004H47.3819V54.1852C49.5754 53.9141 51.6362 52.988 53.2954 51.528C54.9546 50.0679 56.1352 48.1416 56.6831 46.0004H57.0419C58.5053 45.9986 59.9083 45.4164 60.9431 44.3816C61.9779 43.3468 62.5601 41.9439 62.5619 40.4804V36.3404C62.5612 35.6087 62.2701 34.9071 61.7527 34.3896C61.2353 33.8722 60.5337 33.5812 59.8019 33.5804ZM34.9619 43.2404C34.2301 43.2397 33.5285 42.9487 33.0111 42.4312C32.4936 41.9138 32.2026 41.2122 32.2019 40.4804V36.3404H34.9619V43.2404ZM54.2819 43.2404C54.2819 44.3494 54.0591 45.447 53.6268 46.4682C53.1945 47.4894 52.5614 48.4133 51.7652 49.1852C50.969 49.9571 50.0259 50.5612 48.9918 50.9616C47.9576 51.362 46.8536 51.5507 45.7452 51.5163C43.548 51.3795 41.488 50.4011 39.9937 48.7844C38.4993 47.1677 37.6857 45.0373 37.7219 42.8361V32.2004H54.2819V43.2404ZM59.8019 40.4804C59.8012 41.2122 59.5102 41.9138 58.9927 42.4312C58.4753 42.9487 57.7737 43.2397 57.0419 43.2404V36.3404H59.8019V40.4804Z" fill="#FF7600"/>
</svg>
