<svg width="92" height="92" viewBox="0 0 92 92" fill="none" xmlns="http://www.w3.org/2000/svg">
<rect width="92" height="92" rx="8" fill="#FDF8F4"/>
<path d="M38.9209 39.0557C38.0925 39.0557 37.4209 39.7272 37.4209 40.5557C37.4209 41.3841 38.0925 42.0557 38.9209 42.0557H48.7391C49.5675 42.0557 50.2391 41.3841 50.2391 40.5557C50.2391 39.7272 49.5675 39.0557 48.7391 39.0557H38.9209Z" fill="#FF7600"/>
<path d="M37.4209 47.9209C37.4209 47.0925 38.0925 46.4209 38.9209 46.4209H57.7391C58.5675 46.4209 59.2391 47.0925 59.2391 47.9209C59.2391 48.7493 58.5675 49.4209 57.7391 49.4209H38.9209C38.0925 49.4209 37.4209 48.7493 37.4209 47.9209Z" fill="#FF7600"/>
<path d="M38.9209 53.7861C38.0925 53.7861 37.4209 54.4577 37.4209 55.2861C37.4209 56.1146 38.0925 56.7861 38.9209 56.7861H57.7391C58.5675 56.7861 59.2391 56.1146 59.2391 55.2861C59.2391 54.4577 58.5675 53.7861 57.7391 53.7861H38.9209Z" fill="#FF7600"/>
<path fill-rule="evenodd" clip-rule="evenodd" d="M29.9209 36.9209C29.9209 33.0549 33.0549 29.9209 36.9209 29.9209H58.9209C62.7869 29.9209 65.9209 33.0549 65.9209 36.9209V58.9209C65.9209 62.7869 62.7869 65.9209 58.9209 65.9209H36.9209C33.0549 65.9209 29.9209 62.7869 29.9209 58.9209V36.9209ZM36.9209 32.9209H58.9209C61.13 32.9209 62.9209 34.7118 62.9209 36.9209V58.9209C62.9209 61.13 61.13 62.9209 58.9209 62.9209H36.9209C34.7118 62.9209 32.9209 61.13 32.9209 58.9209V36.9209C32.9209 34.7118 34.7118 32.9209 36.9209 32.9209Z" fill="#FF7600"/>
</svg>
