<svg width="24" height="24" viewBox="0 0 24 24" fill="none" xmlns="http://www.w3.org/2000/svg">
<g clip-path="url(#clip0_4009_3984)">
<path d="M24 22.5C24 23.328 23.328 24 22.5 24H1.5C0.672 24 0 23.328 0 22.5V1.5C0 0.672 0.672 0 1.5 0H22.5C23.328 0 24 0.672 24 1.5V22.5Z" fill="#55ACEE"/>
<path d="M19.4902 7.4205C18.9382 7.662 18.3465 7.82325 17.7225 7.89675C18.36 7.52325 18.8475 6.93 19.077 6.2235C18.483 6.56925 17.8245 6.82125 17.1232 6.957C16.5622 6.36825 15.7627 6 14.8785 6C13.179 6 11.8035 7.35525 11.8035 9.0285C11.8035 9.264 11.8305 9.49725 11.8815 9.72C9.32625 9.591 7.05975 8.38575 5.5425 6.55425C5.2785 7.002 5.1255 7.52175 5.1255 8.07825C5.1255 9.1275 5.67 10.0545 6.4935 10.5982C5.99025 10.5817 5.5155 10.446 5.1015 10.2187C5.10075 10.2315 5.10075 10.2442 5.10075 10.2577C5.10075 11.724 6.16125 12.9495 7.56825 13.2277C7.311 13.2952 7.0395 13.3342 6.7575 13.3342C6.5595 13.3342 6.3675 13.3162 6.18 13.2803C6.57 14.4832 7.7055 15.3585 9.051 15.384C8.0025 16.1955 6.675 16.68 5.23425 16.68C4.98675 16.68 4.74075 16.6665 4.5 16.638C5.8605 17.4967 7.47825 17.9977 9.21525 17.9977C14.871 17.9977 17.9647 13.3822 17.9647 9.3795C17.9647 9.24975 17.961 9.117 17.9557 8.98875C18.5557 8.5605 19.0785 8.02725 19.4902 7.4205Z" fill="white"/>
</g>
<defs>
<clipPath id="clip0_4009_3984">
<rect width="24" height="24" fill="white"/>
</clipPath>
</defs>
</svg>
