<svg width="24" height="24" viewBox="0 0 24 24" fill="none" xmlns="http://www.w3.org/2000/svg">
<rect width="24" height="24" rx="2" fill="#3C404B"/>
<path d="M8.25 17.25C10.7353 17.25 12.75 15.0674 12.75 12.375C12.75 9.68261 10.7353 7.5 8.25 7.5C5.76472 7.5 3.75 9.68261 3.75 12.375C3.75 15.0674 5.76472 17.25 8.25 17.25Z" fill="white"/>
<path d="M15.75 16.5C16.9926 16.5 18 14.4853 18 12C18 9.51472 16.9926 7.5 15.75 7.5C14.5074 7.5 13.5 9.51472 13.5 12C13.5 14.4853 14.5074 16.5 15.75 16.5Z" fill="white"/>
<path d="M19.875 15.75C20.4963 15.75 21 14.0711 21 12C21 9.92893 20.4963 8.25 19.875 8.25C19.2537 8.25 18.75 9.92893 18.75 12C18.75 14.0711 19.2537 15.75 19.875 15.75Z" fill="white"/>
</svg>
