<svg width="156" height="42" viewBox="0 0 156 42" fill="none" xmlns="http://www.w3.org/2000/svg">
<g clip-path="url(#clip0_116_615)">
<path d="M21.3886 -0.0107422H14.8236C14.8236 8.94863 14.7983 14.7525 14.7839 23.7119C11.9636 14.9807 9.13611 9.19136 6.305 -0.0107422H0V42.0146C2.12694 41.7103 4.40917 41.4168 6.53972 41.1379C6.53972 32.3596 6.53972 26.9652 6.53972 18.187C9.47194 26.8275 11.2739 31.9213 14.1989 40.1343C16.4919 39.8735 19.0089 39.5474 21.3019 39.3156C21.3284 26.2153 21.3513 13.1137 21.3706 0.0109942" fill="#ED2517"/>
<path d="M45.9188 -0.0107422H27.726C27.702 12.9084 27.6779 25.83 27.6538 38.754C33.7397 38.1985 39.8317 37.7444 45.9296 37.3918C45.9296 35.5043 45.9296 32.7908 45.9296 30.8996C41.9574 31.146 38.173 31.3996 34.2224 31.6677C34.2224 28.1933 34.2224 25.324 34.2441 21.8497C37.133 21.799 40.1808 21.8497 43.131 21.7917C43.131 19.8933 43.131 17.1689 43.131 15.2705C40.206 15.3249 37.1185 15.3321 34.2441 15.3865C34.2441 11.9121 34.2441 10.0065 34.2658 6.5358C36.0713 6.51406 37.848 6.51043 39.6174 6.51043H41.4771C42.9541 6.51043 44.4346 6.51043 45.9441 6.51043C45.9441 4.62292 45.8971 1.90938 45.9008 0.0182415" fill="#ED2517"/>
<path d="M70.4418 0.0288577H50.1943C50.1943 1.90188 50.1943 4.60455 50.1943 6.4812H51.0646C51.9457 6.4812 52.8232 6.4812 53.7043 6.4812C54.5854 6.4812 55.4629 6.49931 56.3441 6.49931H57.0193C57.0193 16.9115 56.9941 26.4251 56.9796 36.8337C59.121 36.754 61.4177 36.6887 63.5591 36.6344C63.5591 26.2766 63.5807 16.8245 63.5879 6.46671L70.4491 6.44859C70.4491 4.60455 70.4491 1.85841 70.4491 0.0107422" fill="#ED2517"/>
<path d="M92.9717 -0.0110554H74.7031C74.7031 12.1473 74.7031 24.3057 74.7031 36.4641H76.8409C78.2854 36.4641 79.7731 36.4641 81.2104 36.4641C81.2104 31.3051 81.2104 26.5953 81.2104 21.4364H82.2937H84.872H87.472C88.3603 21.4364 89.2415 21.4364 90.1009 21.4364C90.1009 19.5887 90.1009 16.8353 90.1009 14.9876C89.2884 14.9876 88.4578 14.9876 87.6165 14.9876H84.8973H82.2106H81.2031C81.2031 11.6691 81.2031 9.79969 81.2031 6.48114H87.6706C89.4328 6.48114 91.1987 6.48114 92.9826 6.48114C92.9826 4.62622 92.9826 1.8185 92.9826 -0.0400391" fill="#ED2517"/>
<path d="M97.2365 0.0322266C97.2365 12.3065 97.1931 24.5808 97.2112 36.8551C103.05 37.0725 109.189 37.3116 115.021 37.7138C115.021 35.8262 115.021 33.1127 115.021 31.2216C111.327 31.0042 107.485 30.7433 103.791 30.5912C103.773 20.0848 103.83 10.5422 103.816 0.0322266H97.2365Z" fill="#ED2517"/>
<path d="M120.409 0.0322266L120.485 38.1159C122.626 38.2789 124.84 38.4601 126.985 38.6485C126.985 25.7873 126.985 12.9152 126.985 0.0322266H120.409Z" fill="#ED2517"/>
<path d="M132.607 0.0322266C135.236 6.45196 137.638 12.8862 140.303 19.7044C137.533 26.251 134.709 32.7468 131.943 39.0361C134.236 39.2644 136.608 39.594 138.901 39.8513C140.545 35.8081 142.04 32.6924 143.686 28.537C145.329 32.9642 146.821 36.3842 148.46 40.949C150.75 41.2497 153.714 41.6736 156 42.0032C153.23 34.5727 150.201 26.8379 147.416 19.8168C150.19 13.2231 153.021 6.92656 155.899 0.035853H148.727C146.951 4.29636 145.726 7.03524 144.033 11.0929C142.448 6.87222 141.382 4.14057 139.79 0.035853H132.607" fill="#ED2517"/>
</g>
<defs>
<clipPath id="clip0_116_615">
<rect width="156" height="42" fill="white"/>
</clipPath>
</defs>
</svg>
