<svg width="24" height="24" viewBox="0 0 24 24" fill="none" xmlns="http://www.w3.org/2000/svg">
<path d="M9.03342 15.194C7.9904 15.194 7.14389 16.0298 7.14389 17.0597L7.14497 18.0853C7.01864 20.4202 8.77645 21.6004 11.9304 21.6004C15.0724 21.6004 16.8615 20.4383 16.8615 18.1259V17.0597C16.8615 16.0298 16.015 15.194 14.972 15.194H9.03342ZM9.03342 16.7932H14.972C15.0436 16.7932 15.1122 16.8213 15.1628 16.8713C15.2135 16.9212 15.2419 16.989 15.2419 17.0597V18.1259C15.2419 19.3796 14.2842 20.0012 11.9304 20.0012C9.58949 20.0012 8.69655 19.3999 8.76349 18.128V17.0597C8.76349 16.989 8.79193 16.9212 8.84255 16.8713C8.89317 16.8213 8.96183 16.7932 9.03342 16.7932ZM20.9105 9.86333H16.1856C16.3216 10.3852 16.3564 10.9278 16.2882 11.4625H20.9105C20.9821 11.4625 21.0508 11.4906 21.1014 11.5406C21.152 11.5906 21.1804 11.6584 21.1804 11.7291V12.7952C21.1804 14.049 20.2227 14.6705 17.8689 14.6705C17.3701 14.6705 16.9371 14.6428 16.5657 14.5884C17.1835 14.9749 17.6346 15.5734 17.8322 16.2687L17.8689 16.2697C21.0109 16.2697 22.8 15.1076 22.8 12.7952V11.7291C22.8 10.6992 21.9535 9.86333 20.9105 9.86333ZM3.09488 9.86333C2.05186 9.86333 1.20534 10.6992 1.20534 11.7291L1.20642 12.7547C1.08009 15.0895 2.8379 16.2697 5.99181 16.2697L6.17428 16.2676C6.37788 15.5533 6.84773 14.9416 7.4894 14.5554C7.07154 14.6321 6.57487 14.6705 5.99181 14.6705C3.65094 14.6705 2.758 14.0692 2.82495 12.7973V11.7291C2.82495 11.6584 2.85339 11.5906 2.90401 11.5406C2.95463 11.4906 3.02329 11.4625 3.09488 11.4625H7.71615C7.64934 10.9277 7.6845 10.3853 7.8198 9.86333H3.09488ZM12.0027 7.73106C11.5773 7.73106 11.1561 7.81379 10.7631 7.97452C10.3701 8.13526 10.013 8.37085 9.71223 8.66785C9.41144 8.96485 9.17284 9.31744 9.01006 9.70548C8.84727 10.0935 8.76349 10.5094 8.76349 10.9295C8.76349 11.3495 8.84727 11.7654 9.01006 12.1534C9.17284 12.5415 9.41144 12.8941 9.71223 13.1911C10.013 13.4881 10.3701 13.7237 10.7631 13.8844C11.1561 14.0451 11.5773 14.1279 12.0027 14.1279C12.8618 14.1279 13.6857 13.7909 14.2932 13.1911C14.9006 12.5913 15.2419 11.7777 15.2419 10.9295C15.2419 10.0812 14.9006 9.26766 14.2932 8.66785C13.6857 8.06803 12.8618 7.73106 12.0027 7.73106ZM12.0027 9.33026C12.2154 9.33026 12.426 9.37162 12.6225 9.45199C12.819 9.53236 12.9975 9.65015 13.1479 9.79865C13.2983 9.94715 13.4176 10.1234 13.499 10.3175C13.5804 10.5115 13.6223 10.7194 13.6223 10.9295C13.6223 11.1395 13.5804 11.3474 13.499 11.5414C13.4176 11.7355 13.2983 11.9118 13.1479 12.0603C12.9975 12.2088 12.819 12.3266 12.6225 12.4069C12.426 12.4873 12.2154 12.5287 12.0027 12.5287C11.5732 12.5287 11.1612 12.3602 10.8575 12.0603C10.5537 11.7604 10.3831 11.3536 10.3831 10.9295C10.3831 10.5053 10.5537 10.0986 10.8575 9.79865C11.1612 9.49874 11.5732 9.33026 12.0027 9.33026ZM17.9412 2.40039C17.0821 2.40039 16.2582 2.73736 15.6508 3.33718C15.0433 3.937 14.702 4.75052 14.702 5.59879C14.702 6.44706 15.0433 7.26059 15.6508 7.8604C16.2582 8.46022 17.0821 8.79719 17.9412 8.79719C18.8003 8.79719 19.6242 8.46022 20.2317 7.8604C20.8392 7.26059 21.1804 6.44706 21.1804 5.59879C21.1804 4.75052 20.8392 3.937 20.2317 3.33718C19.6242 2.73736 18.8003 2.40039 17.9412 2.40039ZM6.06415 2.40039C5.20506 2.40039 4.38116 2.73736 3.77369 3.33718C3.16622 3.937 2.82495 4.75052 2.82495 5.59879C2.82495 6.44706 3.16622 7.26059 3.77369 7.8604C4.38116 8.46022 5.20506 8.79719 6.06415 8.79719C6.92324 8.79719 7.74715 8.46022 8.35462 7.8604C8.96209 7.26059 9.30336 6.44706 9.30336 5.59879C9.30336 4.75052 8.96209 3.937 8.35462 3.33718C7.74715 2.73736 6.92324 2.40039 6.06415 2.40039ZM17.9412 3.99959C18.3708 3.99959 18.7827 4.16808 19.0865 4.46799C19.3902 4.76789 19.5608 5.17466 19.5608 5.59879C19.5608 6.02293 19.3902 6.42969 19.0865 6.7296C18.7827 7.0295 18.3708 7.19799 17.9412 7.19799C17.5117 7.19799 17.0997 7.0295 16.796 6.7296C16.4923 6.42969 16.3216 6.02293 16.3216 5.59879C16.3216 5.17466 16.4923 4.76789 16.796 4.46799C17.0997 4.16808 17.5117 3.99959 17.9412 3.99959ZM6.06415 3.99959C6.4937 3.99959 6.90565 4.16808 7.20938 4.46799C7.51312 4.76789 7.68375 5.17466 7.68375 5.59879C7.68375 6.02293 7.51312 6.42969 7.20938 6.7296C6.90565 7.0295 6.4937 7.19799 6.06415 7.19799C5.63461 7.19799 5.22265 7.0295 4.91892 6.7296C4.61519 6.42969 4.44455 6.02293 4.44455 5.59879C4.44455 5.17466 4.61519 4.76789 4.91892 4.46799C5.22265 4.16808 5.63461 3.99959 6.06415 3.99959Z" fill="#3C404B"/>
</svg>
