<svg width="21" height="20" viewBox="0 0 21 20" fill="none" xmlns="http://www.w3.org/2000/svg">
<path d="M8.02781 12.6613C7.15863 12.6613 6.4532 13.3579 6.4532 14.2161L6.4541 15.0708C6.34882 17.0165 7.81367 18 10.4419 18C13.0603 18 14.5512 17.0316 14.5512 15.1046V14.2161C14.5512 13.3579 13.8458 12.6613 12.9766 12.6613H8.02781ZM8.02781 13.994H12.9766C13.0363 13.994 13.0935 14.0174 13.1357 14.0591C13.1778 14.1007 13.2015 14.1572 13.2015 14.2161V15.1046C13.2015 16.1494 12.4034 16.6673 10.4419 16.6673C8.4912 16.6673 7.74708 16.1663 7.80287 15.1063V14.2161C7.80287 14.1572 7.82657 14.1007 7.86875 14.0591C7.91094 14.0174 7.96815 13.994 8.02781 13.994ZM17.9254 8.21911H13.988C14.1013 8.65403 14.1303 9.10621 14.0734 9.55178H17.9254C17.985 9.55178 18.0423 9.57518 18.0844 9.61683C18.1266 9.65849 18.1503 9.71498 18.1503 9.77389V10.6623C18.1503 11.7071 17.3522 12.2251 15.3907 12.2251C14.975 12.2251 14.6142 12.202 14.3047 12.1567C14.8195 12.4788 15.1954 12.9775 15.3601 13.5569L15.3907 13.5578C18.0091 13.5578 19.5 12.5894 19.5 10.6623V9.77389C19.5 8.91565 18.7946 8.21911 17.9254 8.21911ZM3.07903 8.21911C2.20984 8.21911 1.50441 8.91565 1.50441 9.77389L1.50531 10.6286C1.40004 12.5743 2.86488 13.5578 5.49313 13.5578L5.6452 13.556C5.81486 12.9608 6.2064 12.451 6.74113 12.1292C6.39291 12.1931 5.97902 12.2251 5.49313 12.2251C3.54241 12.2251 2.7983 11.724 2.85408 10.6641V9.77389C2.85408 9.71498 2.87778 9.65849 2.91997 9.61683C2.96215 9.57518 3.01937 9.55178 3.07903 9.55178H6.93008C6.87441 9.10613 6.90371 8.65412 7.01646 8.21911H3.07903ZM10.5022 6.44222C10.1477 6.44222 9.79671 6.51116 9.46921 6.64511C9.14172 6.77905 8.84414 6.97538 8.59349 7.22288C8.34283 7.47038 8.144 7.7642 8.00834 8.08758C7.87269 8.41095 7.80287 8.75754 7.80287 9.10756C7.80287 9.45757 7.87269 9.80416 8.00834 10.1275C8.144 10.4509 8.34283 10.7447 8.59349 10.9922C8.84414 11.2397 9.14172 11.4361 9.46921 11.57C9.79671 11.7039 10.1477 11.7729 10.5022 11.7729C11.2181 11.7729 11.9047 11.4921 12.4109 10.9922C12.9172 10.4924 13.2015 9.81445 13.2015 9.10756C13.2015 8.40067 12.9172 7.72273 12.4109 7.22288C11.9047 6.72303 11.2181 6.44222 10.5022 6.44222ZM10.5022 7.77489C10.6794 7.77489 10.855 7.80936 11.0187 7.87633C11.1825 7.94331 11.3312 8.04147 11.4566 8.16522C11.5819 8.28897 11.6813 8.43588 11.7491 8.59757C11.817 8.75925 11.8519 8.93255 11.8519 9.10756C11.8519 9.28257 11.817 9.45586 11.7491 9.61755C11.6813 9.77923 11.5819 9.92615 11.4566 10.0499C11.3312 10.1736 11.1825 10.2718 11.0187 10.3388C10.855 10.4058 10.6794 10.4402 10.5022 10.4402C10.1443 10.4402 9.80096 10.2998 9.54785 10.0499C9.29473 9.79997 9.15254 9.461 9.15254 9.10756C9.15254 8.75411 9.29473 8.41514 9.54785 8.16522C9.80096 7.9153 10.1443 7.77489 10.5022 7.77489ZM15.451 2C14.7351 2 14.0485 2.28081 13.5423 2.78066C13.036 3.28051 12.7517 3.95844 12.7517 4.66533C12.7517 5.37222 13.036 6.05016 13.5423 6.55001C14.0485 7.04986 14.7351 7.33067 15.451 7.33067C16.1669 7.33067 16.8535 7.04986 17.3597 6.55001C17.8659 6.05016 18.1503 5.37222 18.1503 4.66533C18.1503 3.95844 17.8659 3.28051 17.3597 2.78066C16.8535 2.28081 16.1669 2 15.451 2ZM5.55342 2C4.83751 2 4.15092 2.28081 3.6447 2.78066C3.13848 3.28051 2.85408 3.95844 2.85408 4.66533C2.85408 5.37222 3.13848 6.05016 3.6447 6.55001C4.15092 7.04986 4.83751 7.33067 5.55342 7.33067C6.26933 7.33067 6.95592 7.04986 7.46214 6.55001C7.96836 6.05016 8.25276 5.37222 8.25276 4.66533C8.25276 3.95844 7.96836 3.28051 7.46214 2.78066C6.95592 2.28081 6.26933 2 5.55342 2ZM15.451 3.33267C15.8089 3.33267 16.1522 3.47307 16.4054 3.723C16.6585 3.97292 16.8007 4.31189 16.8007 4.66533C16.8007 5.01878 16.6585 5.35775 16.4054 5.60767C16.1522 5.8576 15.8089 5.998 15.451 5.998C15.093 5.998 14.7497 5.8576 14.4966 5.60767C14.2435 5.35775 14.1013 5.01878 14.1013 4.66533C14.1013 4.31189 14.2435 3.97292 14.4966 3.723C14.7497 3.47307 15.093 3.33267 15.451 3.33267ZM5.55342 3.33267C5.91137 3.33267 6.25467 3.47307 6.50778 3.723C6.76089 3.97292 6.90309 4.31189 6.90309 4.66533C6.90309 5.01878 6.76089 5.35775 6.50778 5.60767C6.25467 5.8576 5.91137 5.998 5.55342 5.998C5.19547 5.998 4.85217 5.8576 4.59906 5.60767C4.34595 5.35775 4.20375 5.01878 4.20375 4.66533C4.20375 4.31189 4.34595 3.97292 4.59906 3.723C4.85217 3.47307 5.19547 3.33267 5.55342 3.33267Z" fill="#FF7600"/>
</svg>
