<svg width="56" height="56" viewBox="0 0 56 56" fill="none" xmlns="http://www.w3.org/2000/svg">
<rect width="56" height="56" rx="8" fill="#0053E2"/>
<path d="M32.6486 23.7147C33.5011 23.7147 34.3187 24.0534 34.9214 24.6561C35.5242 25.2589 35.8629 26.0765 35.8629 26.929V35.8561C35.8629 37.9404 35.0349 39.9392 33.5612 41.413C32.0874 42.8868 30.0885 43.7147 28.0043 43.7147C25.9201 43.7147 23.9212 42.8868 22.4475 41.413C20.9737 39.9392 20.1457 37.9404 20.1457 35.8561V26.929C20.1457 26.0765 20.4844 25.2589 21.0872 24.6561C21.69 24.0534 22.5076 23.7147 23.36 23.7147H32.6486ZM32.6486 25.8576H23.36C23.0759 25.8576 22.8034 25.9704 22.6024 26.1714C22.4015 26.3723 22.2886 26.6448 22.2886 26.929V35.8561C22.2886 37.372 22.8908 38.8259 23.9627 39.8978C25.0346 40.9697 26.4884 41.5718 28.0043 41.5718C29.5202 41.5718 30.974 40.9697 32.0459 39.8978C33.1178 38.8259 33.72 37.372 33.72 35.8561V26.929C33.72 26.6448 33.6072 26.3723 33.4062 26.1714C33.2053 25.9704 32.9328 25.8576 32.6486 25.8576ZM14.0715 23.7147H20.0086C19.4351 24.3119 19.032 25.0518 18.8415 25.8576H14.0715C13.7873 25.8576 13.5148 25.9704 13.3138 26.1714C13.1129 26.3723 13 26.6448 13 26.929V34.4276C12.9998 35.1444 13.1794 35.8498 13.5222 36.4792C13.8651 37.1087 14.3603 37.6422 14.9625 38.0309C15.5648 38.4195 16.2549 38.651 16.9697 38.7041C17.6845 38.7572 18.4013 38.6302 19.0543 38.3347C19.2443 39.0347 19.5172 39.7004 19.86 40.3233C18.8813 40.7506 17.8115 40.9274 16.7473 40.8378C15.6831 40.7481 14.658 40.3947 13.7645 39.8096C12.8711 39.2246 12.1374 38.4261 11.6298 37.4865C11.1222 36.5468 10.8567 35.4955 10.8572 34.4276V26.929C10.8572 26.0765 11.1958 25.2589 11.7986 24.6561C12.4014 24.0534 13.219 23.7147 14.0715 23.7147ZM41.9286 23.7147C42.7811 23.7147 43.5987 24.0534 44.2014 24.6561C44.8042 25.2589 45.1429 26.0765 45.1429 26.929V34.429C45.1433 35.4964 44.878 36.5471 44.3708 37.4862C43.8636 38.4254 43.1306 39.2235 42.2378 39.8085C41.345 40.3936 40.3206 40.7471 39.2571 40.8372C38.1935 40.9273 37.1242 40.7512 36.1457 40.3247L36.2257 40.179C36.5315 39.599 36.7786 38.9833 36.9557 38.3376C37.6085 38.6313 38.3243 38.7568 39.038 38.7027C39.7517 38.6487 40.4405 38.4167 41.0415 38.0281C41.6425 37.6394 42.1367 37.1064 42.4788 36.4778C42.8209 35.8491 43.0001 35.1447 43 34.429V26.929C43 26.6451 42.8873 26.3728 42.6867 26.1719C42.4861 25.971 42.2139 25.8579 41.93 25.8576H37.1686C36.9777 25.0516 36.5742 24.3117 36 23.7147H41.93H41.9286ZM28 12.2861C28.6566 12.2861 29.3068 12.4155 29.9135 12.6667C30.5201 12.918 31.0713 13.2863 31.5356 13.7506C31.9999 14.2149 32.3682 14.7661 32.6194 15.3727C32.8707 15.9793 33 16.6295 33 17.2861C33 17.9427 32.8707 18.5929 32.6194 19.1996C32.3682 19.8062 31.9999 20.3574 31.5356 20.8217C31.0713 21.286 30.5201 21.6543 29.9135 21.9055C29.3068 22.1568 28.6566 22.2861 28 22.2861C26.674 22.2861 25.4022 21.7593 24.4645 20.8217C23.5268 19.884 23 18.6122 23 17.2861C23 15.9601 23.5268 14.6883 24.4645 13.7506C25.4022 12.8129 26.674 12.2861 28 12.2861ZM39.4329 13.7147C39.9957 13.7147 40.553 13.8256 41.073 14.0409C41.5929 14.2563 42.0654 14.572 42.4633 14.97C42.8613 15.3679 43.177 15.8404 43.3924 16.3603C43.6078 16.8803 43.7186 17.4376 43.7186 18.0004C43.7186 18.5632 43.6078 19.1205 43.3924 19.6405C43.177 20.1605 42.8613 20.6329 42.4633 21.0309C42.0654 21.4288 41.5929 21.7445 41.073 21.9599C40.553 22.1753 39.9957 22.2861 39.4329 22.2861C38.2962 22.2861 37.2062 21.8346 36.4024 21.0309C35.5987 20.2272 35.1472 19.1371 35.1472 18.0004C35.1472 16.8638 35.5987 15.7737 36.4024 14.97C37.2062 14.1662 38.2962 13.7147 39.4329 13.7147ZM16.5672 13.7147C17.13 13.7147 17.6873 13.8256 18.2073 14.0409C18.7272 14.2563 19.1997 14.572 19.5976 14.97C19.9956 15.3679 20.3113 15.8404 20.5267 16.3603C20.742 16.8803 20.8529 17.4376 20.8529 18.0004C20.8529 18.5632 20.742 19.1205 20.5267 19.6405C20.3113 20.1605 19.9956 20.6329 19.5976 21.0309C19.1997 21.4288 18.7272 21.7445 18.2073 21.9599C17.6873 22.1753 17.13 22.2861 16.5672 22.2861C15.4305 22.2861 14.3404 21.8346 13.5367 21.0309C12.733 20.2272 12.2815 19.1371 12.2815 18.0004C12.2815 16.8638 12.733 15.7737 13.5367 14.97C14.3404 14.1662 15.4305 13.7147 16.5672 13.7147ZM28 14.429C27.2423 14.429 26.5155 14.73 25.9797 15.2658C25.4439 15.8016 25.1429 16.5284 25.1429 17.2861C25.1429 18.0439 25.4439 18.7706 25.9797 19.3064C26.5155 19.8423 27.2423 20.1433 28 20.1433C28.7578 20.1433 29.4845 19.8423 30.0203 19.3064C30.5562 18.7706 30.8572 18.0439 30.8572 17.2861C30.8572 16.5284 30.5562 15.8016 30.0203 15.2658C29.4845 14.73 28.7578 14.429 28 14.429ZM39.4329 15.8576C39.1515 15.8576 38.8728 15.913 38.6129 16.0207C38.3529 16.1284 38.1166 16.2862 37.9177 16.4852C37.7187 16.6842 37.5608 16.9204 37.4531 17.1804C37.3455 17.4404 37.29 17.719 37.29 18.0004C37.29 18.2818 37.3455 18.5605 37.4531 18.8205C37.5608 19.0804 37.7187 19.3167 37.9177 19.5156C38.1166 19.7146 38.3529 19.8725 38.6129 19.9802C38.8728 20.0879 39.1515 20.1433 39.4329 20.1433C40.0012 20.1433 40.5463 19.9175 40.9481 19.5156C41.35 19.1138 41.5757 18.5687 41.5757 18.0004C41.5757 17.4321 41.35 16.8871 40.9481 16.4852C40.5463 16.0833 40.0012 15.8576 39.4329 15.8576ZM16.5672 15.8576C16.2858 15.8576 16.0071 15.913 15.7471 16.0207C15.4872 16.1284 15.2509 16.2862 15.0519 16.4852C14.853 16.6842 14.6951 16.9204 14.5874 17.1804C14.4797 17.4404 14.4243 17.719 14.4243 18.0004C14.4243 18.2818 14.4797 18.5605 14.5874 18.8205C14.6951 19.0804 14.853 19.3167 15.0519 19.5156C15.2509 19.7146 15.4872 19.8725 15.7471 19.9802C16.0071 20.0879 16.2858 20.1433 16.5672 20.1433C17.1355 20.1433 17.6805 19.9175 18.0824 19.5156C18.4843 19.1138 18.71 18.5687 18.71 18.0004C18.71 17.4321 18.4843 16.8871 18.0824 16.4852C17.6805 16.0833 17.1355 15.8576 16.5672 15.8576Z" fill="white"/>
</svg>
