<svg width="160" height="50" viewBox="0 0 160 50" fill="none" xmlns="http://www.w3.org/2000/svg">
<g clip-path="url(#clip0_116_662)">
<path d="M24.8909 0C19.9677 3.17239e-07 15.1551 1.46617 11.0614 4.21314C6.96783 6.96011 3.77708 10.8645 1.89264 15.4327C0.00820327 20.0009 -0.485303 25.0277 0.474519 29.8775C1.43434 34.7274 3.80439 39.1825 7.285 42.6796C10.7656 46.1767 15.2005 48.5587 20.0289 49.5245C24.8573 50.4902 29.8624 49.9963 34.4113 48.1053C38.9603 46.2143 42.8488 43.011 45.5853 38.9004C48.3218 34.7899 49.7833 29.9567 49.7851 25.0119C49.7851 21.7286 49.1411 18.4775 47.8901 15.4442C46.639 12.4108 44.8052 9.65472 42.4936 7.33322C40.1819 5.01172 37.4376 3.17029 34.4173 1.9141C31.397 0.657908 28.16 0.0115522 24.8909 0.0119443V0ZM36.3081 36.058C36.2018 36.2328 36.0622 36.3847 35.8974 36.5053C35.7326 36.6258 35.5457 36.7125 35.3475 36.7605C35.1493 36.8085 34.9436 36.8167 34.7423 36.7848C34.5409 36.7529 34.3477 36.6814 34.1739 36.5745C28.3301 32.992 20.9703 32.177 12.3057 34.1653C11.9044 34.2571 11.4833 34.1851 11.1349 33.9651C10.7865 33.745 10.5394 33.395 10.4479 32.992C10.3565 32.589 10.4282 32.166 10.6472 31.8161C10.8663 31.4661 11.2148 31.218 11.6161 31.1261C21.0981 28.9497 29.2307 29.8872 35.7938 33.9145C35.9678 34.0213 36.1191 34.1614 36.2391 34.327C36.3591 34.4925 36.4455 34.6802 36.4932 34.8792C36.541 35.0783 36.5492 35.2849 36.5174 35.4871C36.4857 35.6894 36.4145 35.8834 36.3081 36.058ZM39.3548 29.2513C39.2215 29.4702 39.0464 29.6606 38.8396 29.8114C38.6329 29.9622 38.3985 30.0706 38.1499 30.1302C37.9014 30.1899 37.6435 30.1996 37.3912 30.1589C37.1389 30.1182 36.8971 30.0279 36.6796 29.8931C29.9946 25.7643 19.7992 24.5671 11.8806 26.9793C11.6341 27.0638 11.3732 27.0976 11.1134 27.0787C10.8536 27.0597 10.6002 26.9885 10.3684 26.8691C10.1366 26.7498 9.9311 26.5848 9.76412 26.384C9.59713 26.1832 9.4721 25.9507 9.39646 25.7004C9.32083 25.45 9.29614 25.1869 9.32386 24.9268C9.35159 24.6667 9.43116 24.4148 9.55784 24.1862C9.68452 23.9576 9.85572 23.757 10.0612 23.5962C10.2667 23.4355 10.5024 23.3179 10.7541 23.2505C19.7932 20.495 31.032 21.8295 38.7157 26.5733C38.934 26.707 39.1239 26.8827 39.2743 27.0903C39.4247 27.2979 39.5327 27.5334 39.5921 27.7832C39.6515 28.0329 39.6611 28.292 39.6204 28.5455C39.5797 28.799 39.4894 29.0419 39.3548 29.2602V29.2513ZM39.6164 22.1638C31.5908 17.3871 18.3575 16.9363 10.6976 19.271C10.1063 19.4511 9.46805 19.3879 8.92316 19.0954C8.37826 18.8029 7.97138 18.3049 7.79204 17.7111C7.61269 17.1172 7.67556 16.4762 7.96683 15.9289C8.25809 15.3816 8.75388 14.9729 9.34513 14.7928C18.1376 12.1059 32.756 12.6314 41.9913 18.1365C42.5063 18.4611 42.8746 18.9751 43.0176 19.5686C43.1606 20.1622 43.0669 20.7884 42.7566 21.3135C42.4463 21.8387 41.9439 22.2212 41.3567 22.3795C40.7694 22.5378 40.1438 22.4594 39.6134 22.1609L39.6164 22.1638ZM67.7237 23.0804C63.4256 22.0504 62.6706 21.3279 62.6706 19.8113C62.6706 18.3753 64.0141 17.423 66.0145 17.423C67.9526 17.423 69.8787 18.1544 71.8881 19.665C71.9181 19.6872 71.9522 19.7031 71.9885 19.7118C72.0247 19.7205 72.0623 19.7219 72.0991 19.7158C72.1736 19.7032 72.2406 19.6627 72.2864 19.6023L74.3849 16.6169C74.4263 16.5584 74.4439 16.4862 74.4339 16.4151C74.424 16.3441 74.3873 16.2795 74.3314 16.2348C72.002 14.3263 69.0736 13.3106 66.068 13.3688C61.4281 13.3688 58.1852 16.1631 58.1852 20.1666C58.1852 24.4566 60.9822 25.9762 65.8154 27.1495C69.9263 28.0959 70.6278 28.893 70.6278 30.3171C70.6278 31.8963 69.2248 32.8786 66.9657 32.8786C64.457 32.8786 62.409 32.0277 60.1291 30.0394C60.0718 29.9915 59.9986 29.967 59.924 29.9707C59.8869 29.9734 59.8507 29.9835 59.8175 30.0004C59.7844 30.0173 59.7549 30.0407 59.7308 30.0693L57.3767 32.8815C57.3326 32.9392 57.3109 33.0111 57.3159 33.0837C57.3208 33.1562 57.3519 33.2245 57.4034 33.2756C59.9981 35.6369 63.3782 36.9382 66.8795 36.9238C71.8791 36.9238 75.1102 34.1802 75.1102 29.9319C75.1102 26.3494 72.9819 24.3641 67.7475 23.0834L67.7237 23.0804ZM86.4084 18.8231C84.2415 18.8231 82.464 19.68 80.9956 21.4384V19.459C80.9921 19.3855 80.9616 19.3158 80.91 19.2635C80.8584 19.2111 80.7894 19.1798 80.7162 19.1754H76.8699C76.7967 19.1798 76.7276 19.2111 76.676 19.2635C76.6245 19.3158 76.594 19.3855 76.5904 19.459V41.4318C76.594 41.5054 76.6245 41.575 76.676 41.6274C76.7276 41.6797 76.7967 41.7111 76.8699 41.7154H80.7192C80.7924 41.7111 80.8614 41.6797 80.913 41.6274C80.9645 41.575 80.995 41.5054 80.9986 41.4318V34.4967C81.6624 35.2836 82.4922 35.9123 83.4279 36.3372C84.3636 36.7622 85.3817 36.9727 86.4084 36.9537C90.436 36.9537 94.5142 33.8399 94.5142 27.8869C94.5142 21.934 90.442 18.8202 86.4114 18.8202L86.4084 18.8231ZM90.0377 27.8899C90.0377 30.9201 88.18 33.0368 85.5167 33.0368C82.8534 33.0368 80.9005 30.8246 80.9005 27.8899C80.9005 24.9552 82.8861 22.746 85.5167 22.746C88.1473 22.746 90.0377 24.9075 90.0377 27.8899ZM104.962 18.8231C99.7754 18.8231 95.7121 22.8326 95.7121 27.9556C95.7121 33.0308 99.7487 36.9895 104.9 36.9895C110.105 36.9895 114.18 32.992 114.18 27.8899C114.18 22.7878 110.131 18.8231 104.965 18.8231H104.962ZM104.962 33.0666C102.204 33.0666 100.123 30.8395 100.123 27.8899C100.123 24.9403 102.136 22.7729 104.9 22.7729C107.664 22.7729 109.769 25 109.769 27.9556C109.769 30.9112 107.747 33.0726 104.962 33.0726V33.0666ZM125.255 19.1754H121.019V14.8286C121.02 14.7915 121.013 14.7547 120.999 14.7203C120.985 14.6859 120.965 14.6546 120.939 14.6283C120.913 14.6019 120.882 14.581 120.848 14.5667C120.813 14.5524 120.777 14.545 120.74 14.545H116.891C116.817 14.5486 116.747 14.5797 116.695 14.6321C116.643 14.6845 116.612 14.7546 116.608 14.8286V19.1754H114.759C114.686 19.1798 114.617 19.2111 114.566 19.2635C114.514 19.3158 114.484 19.3855 114.48 19.459V22.7818C114.48 22.858 114.509 22.9313 114.561 22.9868C114.613 23.0423 114.684 23.0758 114.759 23.0804H116.608V31.6754C116.608 35.1475 118.329 36.9089 121.727 36.9089C122.986 36.9407 124.23 36.6314 125.329 36.0133C125.373 35.9891 125.409 35.9536 125.434 35.9105C125.459 35.8675 125.472 35.8184 125.472 35.7685V32.6039C125.472 32.5559 125.46 32.5088 125.436 32.467C125.413 32.4252 125.379 32.3901 125.338 32.3651C125.297 32.341 125.25 32.3283 125.202 32.3283C125.154 32.3283 125.106 32.341 125.065 32.3651C124.367 32.728 123.592 32.9154 122.806 32.9114C121.572 32.9114 121.022 32.3471 121.022 31.0873V23.0654H125.258C125.296 23.0655 125.334 23.0577 125.369 23.0425C125.404 23.0273 125.436 23.005 125.462 22.977C125.488 22.949 125.509 22.9159 125.522 22.8798C125.535 22.8437 125.54 22.8052 125.537 22.7669V19.462C125.541 19.4237 125.537 19.3849 125.525 19.3484C125.512 19.3118 125.493 19.2783 125.466 19.25C125.44 19.2218 125.408 19.1995 125.373 19.1845C125.338 19.1696 125.299 19.1624 125.261 19.1635L125.255 19.1754ZM140.01 19.1933V18.6589C140.01 17.0886 140.605 16.387 141.954 16.387C142.695 16.3962 143.429 16.5326 144.124 16.7901C144.167 16.8024 144.211 16.8051 144.255 16.7979C144.299 16.7907 144.34 16.7737 144.377 16.7483C144.413 16.7224 144.443 16.6879 144.463 16.6478C144.483 16.6078 144.494 16.5633 144.493 16.5184V13.2613C144.493 13.2008 144.474 13.1419 144.438 13.0934C144.402 13.0449 144.351 13.0095 144.294 12.9926C143.258 12.6731 142.179 12.517 141.095 12.5299C137.543 12.5299 135.662 14.5391 135.662 18.3425V19.1605H133.813C133.739 19.1641 133.67 19.1947 133.618 19.2465C133.566 19.2983 133.535 19.3676 133.53 19.4411V22.7818C133.53 22.8585 133.56 22.9322 133.612 22.9878C133.665 23.0434 133.736 23.0765 133.813 23.0804H135.662V36.3357C135.665 36.4097 135.696 36.4798 135.748 36.5322C135.8 36.5846 135.87 36.6157 135.944 36.6193H139.79C139.827 36.6197 139.864 36.6126 139.899 36.5985C139.933 36.5844 139.965 36.5635 139.991 36.5371C140.017 36.5107 140.038 36.4793 140.052 36.4447C140.066 36.4101 140.073 36.373 140.073 36.3357V23.0804H143.666L149.171 36.3357C148.547 37.7269 147.932 38.0045 147.091 38.0045C146.344 37.9888 145.614 37.7834 144.968 37.4075C144.9 37.3716 144.82 37.3641 144.745 37.3866C144.709 37.399 144.675 37.4189 144.646 37.4451C144.618 37.4713 144.595 37.5032 144.579 37.5388L143.274 40.4138C143.248 40.4796 143.245 40.5526 143.268 40.6199C143.29 40.6872 143.335 40.7443 143.396 40.781C144.647 41.4934 146.065 41.8582 147.504 41.8378C150.345 41.8378 151.918 40.5063 153.3 36.9298L159.976 19.6143C159.993 19.5716 159.999 19.5254 159.994 19.4797C159.99 19.434 159.974 19.3902 159.948 19.352C159.923 19.3138 159.889 19.2824 159.848 19.2605C159.808 19.2386 159.763 19.2268 159.717 19.2262H155.714C155.655 19.2281 155.599 19.2473 155.551 19.2813C155.504 19.3152 155.467 19.3625 155.446 19.4172L151.341 31.1888L146.847 19.4083C146.825 19.3562 146.789 19.3114 146.742 19.2791C146.696 19.2469 146.642 19.2285 146.585 19.2262L140.01 19.1933ZM131.456 19.1754H127.606C127.533 19.179 127.463 19.2101 127.411 19.2625C127.358 19.3149 127.328 19.385 127.324 19.459V36.3208C127.328 36.3948 127.358 36.4649 127.411 36.5173C127.463 36.5697 127.533 36.6007 127.606 36.6044H131.456C131.529 36.6007 131.599 36.5697 131.651 36.5173C131.703 36.4649 131.734 36.3948 131.738 36.3208V19.462C131.74 19.4234 131.735 19.3848 131.722 19.3484C131.709 19.3121 131.688 19.2788 131.662 19.2508C131.635 19.2228 131.603 19.2005 131.568 19.1855C131.532 19.1705 131.494 19.163 131.456 19.1635V19.1754ZM129.553 11.4969C129.007 11.4963 128.473 11.6585 128.018 11.9631C127.563 12.2676 127.209 12.7007 127 13.2076C126.79 13.7145 126.735 14.2724 126.842 14.8107C126.948 15.349 127.211 15.8434 127.598 16.2315C127.984 16.6196 128.476 16.8838 129.012 16.9907C129.548 17.0976 130.104 17.0424 130.608 16.8321C131.113 16.6218 131.544 16.2659 131.848 15.8094C132.151 15.3528 132.312 14.8162 132.312 14.2674C132.311 13.5328 132.02 12.8286 131.503 12.3092C130.986 11.7898 130.285 11.4977 129.553 11.4969Z" fill="#1ED760"/>
</g>
<defs>
<clipPath id="clip0_116_662">
<rect width="160" height="50" fill="white"/>
</clipPath>
</defs>
</svg>
