<svg width="16" height="22" viewBox="0 0 16 22" fill="none" xmlns="http://www.w3.org/2000/svg">
<path d="M7.56761 6.29008C7.7378 5.90331 8.2622 5.90331 8.43239 6.29008L10.4409 10.8547C10.5103 11.0123 10.6528 11.1208 10.8173 11.1413L15.5793 11.7331C15.9828 11.7833 16.1449 12.3061 15.8465 12.5953L12.3258 16.0082C12.2043 16.1261 12.1498 16.3017 12.1821 16.4719L13.1167 21.4023C13.1959 21.8201 12.7716 22.1432 12.417 21.9351L8.23258 19.4799C8.08808 19.3951 7.91192 19.3951 7.76742 19.4799L3.58296 21.9351C3.2284 22.1432 2.80415 21.8201 2.88333 21.4023L3.81791 16.4719C3.85018 16.3017 3.79575 16.1261 3.67416 16.0082L0.153454 12.5953C-0.144868 12.3061 0.017181 11.7833 0.420687 11.7331L5.18274 11.1413C5.34719 11.1208 5.48971 11.0123 5.55907 10.8547L7.56761 6.29008Z" fill="#0053E2"/>
</svg>
