<svg width="56" height="56" viewBox="0 0 56 56" fill="none" xmlns="http://www.w3.org/2000/svg">
<rect width="56" height="56" rx="8" fill="#0053E2"/>
<path d="M28 12C28.3993 12 28.76 12.2378 28.918 12.6045L33.0088 22.1045L43.3096 23.0596C43.7071 23.0966 44.0446 23.3673 44.168 23.7471C44.2912 24.1267 44.1768 24.5431 43.877 24.8066L36.1055 31.6328L38.3799 41.7246C38.4676 42.1142 38.3152 42.5182 37.9922 42.7529C37.6691 42.9877 37.237 43.0076 36.8936 42.8037L28 37.5225L19.1064 42.8037C18.763 43.0076 18.3309 42.9877 18.0078 42.7529C17.6848 42.5182 17.5324 42.1142 17.6201 41.7246L19.8936 31.6328L12.123 24.8066C11.8232 24.5431 11.7088 24.1267 11.832 23.7471C11.9554 23.3673 12.2929 23.0966 12.6904 23.0596L22.9902 22.1045L27.082 12.6045L27.1504 12.4736C27.3308 12.1823 27.6505 12 28 12Z" stroke="white" stroke-width="2" stroke-linejoin="round"/>
<circle cx="28" cy="29" r="4" stroke="white" stroke-width="2"/>
</svg>
